<mxfile host="Electron" modified="2023-12-04T04:05:38.851Z" agent="Mozilla/5.0 (Windows NT 10.0; Win64; x64) AppleWebKit/537.36 (KHTML, like Gecko) draw.io/22.1.2 Chrome/114.0.5735.289 Electron/25.9.4 Safari/537.36" etag="tq3Wopp1cMTNPKuTYCM_" version="22.1.2" type="device">
  <diagram name="第 1 页" id="UM-KBZU7ZN3tvVpQD8sY">
    <mxGraphModel dx="766" dy="453" grid="1" gridSize="10" guides="1" tooltips="1" connect="1" arrows="1" fold="1" page="1" pageScale="1" pageWidth="3300" pageHeight="4681" math="0" shadow="0">
      <root>
        <mxCell id="0" />
        <mxCell id="1" parent="0" />
        <mxCell id="ntHZI_EPPsZqQo3f0jup-3" value="Event Loop" style="swimlane;whiteSpace=wrap;html=1;fillColor=#f8cecc;strokeColor=#b85450;startSize=40;" parent="1" vertex="1">
          <mxGeometry x="1560" y="480" width="240" height="580" as="geometry">
            <mxRectangle x="400" y="230" width="140" height="30" as="alternateBounds" />
          </mxGeometry>
        </mxCell>
        <mxCell id="ntHZI_EPPsZqQo3f0jup-5" value="registerEventHandler()" style="rounded=0;whiteSpace=wrap;html=1;" parent="ntHZI_EPPsZqQo3f0jup-3" vertex="1">
          <mxGeometry x="40" y="80" width="160" height="40" as="geometry" />
        </mxCell>
        <mxCell id="ntHZI_EPPsZqQo3f0jup-74" value="mPoller" style="rounded=1;whiteSpace=wrap;html=1;arcSize=43;" parent="ntHZI_EPPsZqQo3f0jup-3" vertex="1">
          <mxGeometry x="40" y="500" width="160" height="40" as="geometry" />
        </mxCell>
        <mxCell id="ntHZI_EPPsZqQo3f0jup-75" value="update()" style="rounded=0;whiteSpace=wrap;html=1;" parent="ntHZI_EPPsZqQo3f0jup-3" vertex="1">
          <mxGeometry x="40" y="140" width="160" height="40" as="geometry" />
        </mxCell>
        <mxCell id="ntHZI_EPPsZqQo3f0jup-76" value="remove()" style="rounded=0;whiteSpace=wrap;html=1;" parent="ntHZI_EPPsZqQo3f0jup-3" vertex="1">
          <mxGeometry x="40" y="200" width="160" height="40" as="geometry" />
        </mxCell>
        <mxCell id="ntHZI_EPPsZqQo3f0jup-77" value="loop()" style="rounded=0;whiteSpace=wrap;html=1;" parent="ntHZI_EPPsZqQo3f0jup-3" vertex="1">
          <mxGeometry x="40" y="260" width="160" height="40" as="geometry" />
        </mxCell>
        <mxCell id="ntHZI_EPPsZqQo3f0jup-109" value="" style="endArrow=none;html=1;rounded=0;entryX=1;entryY=0.75;entryDx=0;entryDy=0;exitX=0;exitY=0.75;exitDx=0;exitDy=0;fillColor=#f8cecc;strokeColor=#b85450;" parent="ntHZI_EPPsZqQo3f0jup-3" edge="1">
          <mxGeometry width="50" height="50" relative="1" as="geometry">
            <mxPoint y="460" as="sourcePoint" />
            <mxPoint x="240" y="460" as="targetPoint" />
          </mxGeometry>
        </mxCell>
        <mxCell id="ntHZI_EPPsZqQo3f0jup-110" value="getEventSize()" style="rounded=0;whiteSpace=wrap;html=1;" parent="ntHZI_EPPsZqQo3f0jup-3" vertex="1">
          <mxGeometry x="40" y="320" width="160" height="40" as="geometry" />
        </mxCell>
        <mxCell id="ntHZI_EPPsZqQo3f0jup-111" value="getLastRate()" style="rounded=0;whiteSpace=wrap;html=1;" parent="ntHZI_EPPsZqQo3f0jup-3" vertex="1">
          <mxGeometry x="40" y="380" width="160" height="40" as="geometry" />
        </mxCell>
        <mxCell id="ntHZI_EPPsZqQo3f0jup-69" style="edgeStyle=orthogonalEdgeStyle;rounded=0;orthogonalLoop=1;jettySize=auto;html=1;exitX=1;exitY=0.5;exitDx=0;exitDy=0;entryX=0;entryY=0.5;entryDx=0;entryDy=0;" parent="1" source="ntHZI_EPPsZqQo3f0jup-6" target="ntHZI_EPPsZqQo3f0jup-52" edge="1">
          <mxGeometry relative="1" as="geometry" />
        </mxCell>
        <mxCell id="ntHZI_EPPsZqQo3f0jup-6" value="Acceptor" style="swimlane;whiteSpace=wrap;html=1;startSize=40;fillColor=#fff2cc;strokeColor=#d6b656;" parent="1" vertex="1">
          <mxGeometry x="1800" y="1560" width="240" height="640" as="geometry">
            <mxRectangle x="1000" y="600" width="90" height="30" as="alternateBounds" />
          </mxGeometry>
        </mxCell>
        <mxCell id="ntHZI_EPPsZqQo3f0jup-7" value="setFilterFunc()" style="rounded=0;whiteSpace=wrap;html=1;" parent="ntHZI_EPPsZqQo3f0jup-6" vertex="1">
          <mxGeometry x="40" y="200" width="160" height="40" as="geometry" />
        </mxCell>
        <mxCell id="ntHZI_EPPsZqQo3f0jup-13" value="setConnectionFunc()" style="rounded=0;whiteSpace=wrap;html=1;" parent="ntHZI_EPPsZqQo3f0jup-6" vertex="1">
          <mxGeometry x="40" y="260" width="160" height="40" as="geometry" />
        </mxCell>
        <mxCell id="ntHZI_EPPsZqQo3f0jup-21" value="mEventLoop&amp;nbsp;" style="rounded=1;whiteSpace=wrap;html=1;arcSize=43;" parent="ntHZI_EPPsZqQo3f0jup-6" vertex="1">
          <mxGeometry x="40" y="380" width="160" height="40" as="geometry" />
        </mxCell>
        <mxCell id="ntHZI_EPPsZqQo3f0jup-26" value="run()" style="rounded=0;whiteSpace=wrap;html=1;" parent="ntHZI_EPPsZqQo3f0jup-6" vertex="1">
          <mxGeometry x="40" y="140" width="160" height="40" as="geometry" />
        </mxCell>
        <mxCell id="ntHZI_EPPsZqQo3f0jup-32" value="listen()" style="rounded=0;whiteSpace=wrap;html=1;" parent="ntHZI_EPPsZqQo3f0jup-6" vertex="1">
          <mxGeometry x="40" y="80" width="160" height="40" as="geometry" />
        </mxCell>
        <mxCell id="ntHZI_EPPsZqQo3f0jup-41" value="mConnectionFunc" style="rounded=1;whiteSpace=wrap;html=1;arcSize=43;" parent="ntHZI_EPPsZqQo3f0jup-6" vertex="1">
          <mxGeometry x="40" y="500" width="160" height="40" as="geometry" />
        </mxCell>
        <mxCell id="ntHZI_EPPsZqQo3f0jup-42" value="mFilterFunc" style="rounded=1;whiteSpace=wrap;html=1;arcSize=43;" parent="ntHZI_EPPsZqQo3f0jup-6" vertex="1">
          <mxGeometry x="40" y="560" width="160" height="40" as="geometry" />
        </mxCell>
        <mxCell id="ntHZI_EPPsZqQo3f0jup-72" value="mListenHandlerPtr" style="rounded=1;whiteSpace=wrap;html=1;arcSize=43;" parent="ntHZI_EPPsZqQo3f0jup-6" vertex="1">
          <mxGeometry x="40" y="440" width="160" height="40" as="geometry" />
        </mxCell>
        <mxCell id="ntHZI_EPPsZqQo3f0jup-73" value="" style="endArrow=none;html=1;rounded=0;fillColor=#fff2cc;strokeColor=#d6b656;" parent="ntHZI_EPPsZqQo3f0jup-6" edge="1">
          <mxGeometry width="50" height="50" relative="1" as="geometry">
            <mxPoint y="340" as="sourcePoint" />
            <mxPoint x="240" y="340" as="targetPoint" />
          </mxGeometry>
        </mxCell>
        <mxCell id="ntHZI_EPPsZqQo3f0jup-272" style="edgeStyle=orthogonalEdgeStyle;rounded=0;orthogonalLoop=1;jettySize=auto;html=1;entryX=0;entryY=0.5;entryDx=0;entryDy=0;" parent="1" source="ntHZI_EPPsZqQo3f0jup-8" target="ntHZI_EPPsZqQo3f0jup-255" edge="1">
          <mxGeometry relative="1" as="geometry">
            <Array as="points">
              <mxPoint x="1520" y="1640" />
              <mxPoint x="1520" y="1120" />
            </Array>
          </mxGeometry>
        </mxCell>
        <mxCell id="yLMswueMquxmP4PVcGWJ-18" style="edgeStyle=orthogonalEdgeStyle;rounded=0;orthogonalLoop=1;jettySize=auto;html=1;exitX=0.5;exitY=1;exitDx=0;exitDy=0;fillColor=#0050ef;strokeColor=#001DBC;" parent="1" source="ntHZI_EPPsZqQo3f0jup-8" edge="1">
          <mxGeometry relative="1" as="geometry">
            <mxPoint x="2400" y="3161.3333333333335" as="targetPoint" />
            <Array as="points">
              <mxPoint x="1280" y="2280" />
              <mxPoint x="2680" y="2280" />
              <mxPoint x="2680" y="3161" />
            </Array>
          </mxGeometry>
        </mxCell>
        <mxCell id="ntHZI_EPPsZqQo3f0jup-8" value="TCP Server" style="swimlane;whiteSpace=wrap;html=1;startSize=40;fillColor=#0050ef;fontColor=#ffffff;strokeColor=#001DBC;strokeWidth=2;" parent="1" vertex="1">
          <mxGeometry x="1120" y="1080" width="320" height="1120" as="geometry" />
        </mxCell>
        <mxCell id="ntHZI_EPPsZqQo3f0jup-9" value="setConnFilterFunc()" style="rounded=0;whiteSpace=wrap;html=1;" parent="ntHZI_EPPsZqQo3f0jup-8" vertex="1">
          <mxGeometry x="40" y="80" width="240" height="40" as="geometry" />
        </mxCell>
        <mxCell id="ntHZI_EPPsZqQo3f0jup-10" value="setConnNameFunc()" style="rounded=0;whiteSpace=wrap;html=1;" parent="ntHZI_EPPsZqQo3f0jup-8" vertex="1">
          <mxGeometry x="40" y="140" width="240" height="40" as="geometry" />
        </mxCell>
        <mxCell id="ntHZI_EPPsZqQo3f0jup-11" value="setMessageFunc()" style="rounded=0;whiteSpace=wrap;html=1;" parent="ntHZI_EPPsZqQo3f0jup-8" vertex="1">
          <mxGeometry x="40" y="200" width="240" height="40" as="geometry" />
        </mxCell>
        <mxCell id="ntHZI_EPPsZqQo3f0jup-12" value="setCloseFunc()" style="rounded=0;whiteSpace=wrap;html=1;" parent="ntHZI_EPPsZqQo3f0jup-8" vertex="1">
          <mxGeometry x="40" y="260" width="240" height="40" as="geometry" />
        </mxCell>
        <mxCell id="ntHZI_EPPsZqQo3f0jup-24" value="mAcceptor" style="rounded=1;whiteSpace=wrap;html=1;arcSize=43;" parent="ntHZI_EPPsZqQo3f0jup-8" vertex="1">
          <mxGeometry x="80" y="520" width="160" height="40" as="geometry" />
        </mxCell>
        <mxCell id="ntHZI_EPPsZqQo3f0jup-25" value="mEventLoopThreadpool" style="rounded=1;whiteSpace=wrap;html=1;arcSize=43;" parent="ntHZI_EPPsZqQo3f0jup-8" vertex="1">
          <mxGeometry x="80" y="580" width="160" height="40" as="geometry" />
        </mxCell>
        <mxCell id="ntHZI_EPPsZqQo3f0jup-117" value="mTcpConnections" style="rounded=1;whiteSpace=wrap;html=1;arcSize=43;" parent="ntHZI_EPPsZqQo3f0jup-8" vertex="1">
          <mxGeometry x="80" y="641" width="160" height="40" as="geometry" />
        </mxCell>
        <mxCell id="ntHZI_EPPsZqQo3f0jup-118" value="mConnNameFunc" style="rounded=1;whiteSpace=wrap;html=1;arcSize=43;" parent="ntHZI_EPPsZqQo3f0jup-8" vertex="1">
          <mxGeometry x="80" y="700" width="160" height="40" as="geometry" />
        </mxCell>
        <mxCell id="ntHZI_EPPsZqQo3f0jup-119" value="mCloseFunc" style="rounded=1;whiteSpace=wrap;html=1;arcSize=43;" parent="ntHZI_EPPsZqQo3f0jup-8" vertex="1">
          <mxGeometry x="80" y="760" width="160" height="40" as="geometry" />
        </mxCell>
        <mxCell id="ntHZI_EPPsZqQo3f0jup-120" value="mTimerTasksThread" style="rounded=1;whiteSpace=wrap;html=1;arcSize=43;" parent="ntHZI_EPPsZqQo3f0jup-8" vertex="1">
          <mxGeometry x="80" y="1040" width="160" height="40" as="geometry" />
        </mxCell>
        <mxCell id="ntHZI_EPPsZqQo3f0jup-122" value="mTimerTasks" style="rounded=1;whiteSpace=wrap;html=1;arcSize=43;" parent="ntHZI_EPPsZqQo3f0jup-8" vertex="1">
          <mxGeometry x="80" y="960" width="160" height="40" as="geometry" />
        </mxCell>
        <mxCell id="ntHZI_EPPsZqQo3f0jup-121" value="mMessageFunc" style="rounded=1;whiteSpace=wrap;html=1;arcSize=43;" parent="ntHZI_EPPsZqQo3f0jup-8" vertex="1">
          <mxGeometry x="80" y="820" width="160" height="40" as="geometry" />
        </mxCell>
        <mxCell id="D7ikYS8tj5oTR3qPuF1m-1" value="registerTimerTask()" style="rounded=0;whiteSpace=wrap;html=1;" parent="ntHZI_EPPsZqQo3f0jup-8" vertex="1">
          <mxGeometry x="40" y="320" width="240" height="40" as="geometry" />
        </mxCell>
        <mxCell id="D7ikYS8tj5oTR3qPuF1m-10" value="timerWork()" style="rounded=0;whiteSpace=wrap;html=1;" parent="ntHZI_EPPsZqQo3f0jup-8" vertex="1">
          <mxGeometry x="40" y="380" width="240" height="40" as="geometry" />
        </mxCell>
        <mxCell id="ntHZI_EPPsZqQo3f0jup-17" value="Check whether the new connection&#39;s address is in the blacklist, if so, stop it and close the socket fd." style="strokeWidth=2;html=1;shape=mxgraph.flowchart.document2;whiteSpace=wrap;size=0.25;fillColor=#dae8fc;strokeColor=#6c8ebf;" parent="1" vertex="1">
          <mxGeometry x="2200" y="2120" width="400" height="80" as="geometry" />
        </mxCell>
        <mxCell id="ntHZI_EPPsZqQo3f0jup-18" value="Handle the new connection." style="strokeWidth=2;html=1;shape=mxgraph.flowchart.document2;whiteSpace=wrap;size=0.25;fillColor=#dae8fc;strokeColor=#6c8ebf;" parent="1" vertex="1">
          <mxGeometry x="2200" y="2000" width="240" height="80" as="geometry" />
        </mxCell>
        <mxCell id="ntHZI_EPPsZqQo3f0jup-19" style="edgeStyle=orthogonalEdgeStyle;rounded=0;orthogonalLoop=1;jettySize=auto;html=1;exitX=1;exitY=0.5;exitDx=0;exitDy=0;entryX=0;entryY=0.5;entryDx=0;entryDy=0;entryPerimeter=0;fillColor=#dae8fc;strokeColor=#6c8ebf;strokeWidth=2;" parent="1" source="ntHZI_EPPsZqQo3f0jup-42" target="ntHZI_EPPsZqQo3f0jup-17" edge="1">
          <mxGeometry relative="1" as="geometry" />
        </mxCell>
        <mxCell id="ntHZI_EPPsZqQo3f0jup-20" style="edgeStyle=orthogonalEdgeStyle;rounded=0;orthogonalLoop=1;jettySize=auto;html=1;exitX=1;exitY=0.5;exitDx=0;exitDy=0;entryX=0;entryY=0.5;entryDx=0;entryDy=0;entryPerimeter=0;fillColor=#dae8fc;strokeColor=#6c8ebf;strokeWidth=2;" parent="1" source="ntHZI_EPPsZqQo3f0jup-41" target="ntHZI_EPPsZqQo3f0jup-18" edge="1">
          <mxGeometry relative="1" as="geometry" />
        </mxCell>
        <mxCell id="ntHZI_EPPsZqQo3f0jup-27" style="edgeStyle=orthogonalEdgeStyle;rounded=0;orthogonalLoop=1;jettySize=auto;html=1;exitX=0;exitY=0.5;exitDx=0;exitDy=0;entryX=0.5;entryY=1;entryDx=0;entryDy=0;fillColor=#f8cecc;strokeColor=#b85450;strokeWidth=2;" parent="1" source="ntHZI_EPPsZqQo3f0jup-21" target="ntHZI_EPPsZqQo3f0jup-3" edge="1">
          <mxGeometry relative="1" as="geometry" />
        </mxCell>
        <mxCell id="ntHZI_EPPsZqQo3f0jup-29" style="edgeStyle=orthogonalEdgeStyle;rounded=0;orthogonalLoop=1;jettySize=auto;html=1;exitX=1;exitY=0.5;exitDx=0;exitDy=0;entryX=0;entryY=0.5;entryDx=0;entryDy=0;fillColor=#fff2cc;strokeColor=#d6b656;strokeWidth=2;" parent="1" source="ntHZI_EPPsZqQo3f0jup-24" target="ntHZI_EPPsZqQo3f0jup-6" edge="1">
          <mxGeometry relative="1" as="geometry" />
        </mxCell>
        <mxCell id="ntHZI_EPPsZqQo3f0jup-160" style="edgeStyle=orthogonalEdgeStyle;rounded=0;orthogonalLoop=1;jettySize=auto;html=1;exitX=1;exitY=0.5;exitDx=0;exitDy=0;entryX=0;entryY=0.5;entryDx=0;entryDy=0;" parent="1" source="ntHZI_EPPsZqQo3f0jup-30" target="ntHZI_EPPsZqQo3f0jup-159" edge="1">
          <mxGeometry relative="1" as="geometry" />
        </mxCell>
        <mxCell id="ntHZI_EPPsZqQo3f0jup-30" value="EventLoopThreadpool" style="swimlane;whiteSpace=wrap;html=1;startSize=40;fillColor=#fff2cc;strokeColor=#d6b656;" parent="1" vertex="1">
          <mxGeometry x="1400" y="2360" width="240" height="520" as="geometry" />
        </mxCell>
        <mxCell id="ntHZI_EPPsZqQo3f0jup-123" value="getDesiredIndex()" style="rounded=0;whiteSpace=wrap;html=1;" parent="ntHZI_EPPsZqQo3f0jup-30" vertex="1">
          <mxGeometry x="40" y="80" width="160" height="40" as="geometry" />
        </mxCell>
        <mxCell id="ntHZI_EPPsZqQo3f0jup-124" value="distributionEvent()" style="rounded=0;whiteSpace=wrap;html=1;" parent="ntHZI_EPPsZqQo3f0jup-30" vertex="1">
          <mxGeometry x="40" y="140" width="160" height="40" as="geometry" />
        </mxCell>
        <mxCell id="ntHZI_EPPsZqQo3f0jup-125" value="roundRobinIndex()" style="rounded=0;whiteSpace=wrap;html=1;" parent="ntHZI_EPPsZqQo3f0jup-30" vertex="1">
          <mxGeometry x="40" y="200" width="160" height="40" as="geometry" />
        </mxCell>
        <mxCell id="ntHZI_EPPsZqQo3f0jup-126" value="fewerEventsIndex()" style="rounded=0;whiteSpace=wrap;html=1;" parent="ntHZI_EPPsZqQo3f0jup-30" vertex="1">
          <mxGeometry x="40" y="260" width="160" height="40" as="geometry" />
        </mxCell>
        <mxCell id="ntHZI_EPPsZqQo3f0jup-127" value="fasterHandledIndex()" style="rounded=0;whiteSpace=wrap;html=1;" parent="ntHZI_EPPsZqQo3f0jup-30" vertex="1">
          <mxGeometry x="40" y="320" width="160" height="40" as="geometry" />
        </mxCell>
        <mxCell id="ntHZI_EPPsZqQo3f0jup-128" value="mEventLoopThreads" style="rounded=1;whiteSpace=wrap;html=1;arcSize=43;" parent="ntHZI_EPPsZqQo3f0jup-30" vertex="1">
          <mxGeometry x="40" y="440" width="160" height="40" as="geometry" />
        </mxCell>
        <mxCell id="ntHZI_EPPsZqQo3f0jup-31" style="edgeStyle=orthogonalEdgeStyle;rounded=0;orthogonalLoop=1;jettySize=auto;html=1;exitX=1;exitY=0.5;exitDx=0;exitDy=0;entryX=0;entryY=0.5;entryDx=0;entryDy=0;strokeWidth=2;fillColor=#fff2cc;strokeColor=#d6b656;" parent="1" source="ntHZI_EPPsZqQo3f0jup-25" target="ntHZI_EPPsZqQo3f0jup-30" edge="1">
          <mxGeometry relative="1" as="geometry" />
        </mxCell>
        <mxCell id="ntHZI_EPPsZqQo3f0jup-57" style="edgeStyle=orthogonalEdgeStyle;rounded=0;orthogonalLoop=1;jettySize=auto;html=1;exitX=0.5;exitY=1;exitDx=0;exitDy=0;entryX=0.5;entryY=0;entryDx=0;entryDy=0;" parent="1" source="ntHZI_EPPsZqQo3f0jup-36" target="ntHZI_EPPsZqQo3f0jup-56" edge="1">
          <mxGeometry relative="1" as="geometry" />
        </mxCell>
        <mxCell id="ntHZI_EPPsZqQo3f0jup-36" value="connFunc()" style="rounded=0;whiteSpace=wrap;html=1;" parent="1" vertex="1">
          <mxGeometry x="2560" y="1720" width="160" height="40" as="geometry" />
        </mxCell>
        <mxCell id="ntHZI_EPPsZqQo3f0jup-50" style="edgeStyle=orthogonalEdgeStyle;rounded=0;orthogonalLoop=1;jettySize=auto;html=1;exitX=1;exitY=0.5;exitDx=0;exitDy=0;entryX=0;entryY=0.5;entryDx=0;entryDy=0;" parent="1" source="ntHZI_EPPsZqQo3f0jup-47" target="ntHZI_EPPsZqQo3f0jup-48" edge="1">
          <mxGeometry relative="1" as="geometry" />
        </mxCell>
        <mxCell id="ntHZI_EPPsZqQo3f0jup-62" style="edgeStyle=orthogonalEdgeStyle;rounded=0;orthogonalLoop=1;jettySize=auto;html=1;exitX=0.5;exitY=1;exitDx=0;exitDy=0;entryX=0.5;entryY=0;entryDx=0;entryDy=0;" parent="1" source="ntHZI_EPPsZqQo3f0jup-47" target="ntHZI_EPPsZqQo3f0jup-61" edge="1">
          <mxGeometry relative="1" as="geometry" />
        </mxCell>
        <mxCell id="ntHZI_EPPsZqQo3f0jup-47" value="listen" style="rounded=0;whiteSpace=wrap;html=1;" parent="1" vertex="1">
          <mxGeometry x="2880" y="1560" width="80" height="80" as="geometry" />
        </mxCell>
        <mxCell id="ntHZI_EPPsZqQo3f0jup-65" style="edgeStyle=orthogonalEdgeStyle;rounded=0;orthogonalLoop=1;jettySize=auto;html=1;exitX=0.5;exitY=1;exitDx=0;exitDy=0;entryX=0.5;entryY=0;entryDx=0;entryDy=0;" parent="1" source="ntHZI_EPPsZqQo3f0jup-48" target="ntHZI_EPPsZqQo3f0jup-64" edge="1">
          <mxGeometry relative="1" as="geometry" />
        </mxCell>
        <mxCell id="ntHZI_EPPsZqQo3f0jup-48" value="run" style="rounded=0;whiteSpace=wrap;html=1;" parent="1" vertex="1">
          <mxGeometry x="3080" y="1560" width="80" height="80" as="geometry" />
        </mxCell>
        <mxCell id="ntHZI_EPPsZqQo3f0jup-59" style="edgeStyle=orthogonalEdgeStyle;rounded=0;orthogonalLoop=1;jettySize=auto;html=1;exitX=1;exitY=0.5;exitDx=0;exitDy=0;entryX=0;entryY=0.5;entryDx=0;entryDy=0;" parent="1" source="ntHZI_EPPsZqQo3f0jup-52" target="ntHZI_EPPsZqQo3f0jup-53" edge="1">
          <mxGeometry relative="1" as="geometry" />
        </mxCell>
        <mxCell id="ntHZI_EPPsZqQo3f0jup-52" value="mListenSocket&lt;br&gt;mEventLoop&lt;br&gt;mListenHandler" style="rounded=0;whiteSpace=wrap;html=1;" parent="1" vertex="1">
          <mxGeometry x="2200" y="1560" width="200" height="80" as="geometry" />
        </mxCell>
        <mxCell id="ntHZI_EPPsZqQo3f0jup-54" style="edgeStyle=orthogonalEdgeStyle;rounded=0;orthogonalLoop=1;jettySize=auto;html=1;exitX=0.5;exitY=1;exitDx=0;exitDy=0;entryX=0.5;entryY=0;entryDx=0;entryDy=0;" parent="1" source="ntHZI_EPPsZqQo3f0jup-53" target="ntHZI_EPPsZqQo3f0jup-36" edge="1">
          <mxGeometry relative="1" as="geometry" />
        </mxCell>
        <mxCell id="ntHZI_EPPsZqQo3f0jup-60" style="edgeStyle=orthogonalEdgeStyle;rounded=0;orthogonalLoop=1;jettySize=auto;html=1;exitX=1;exitY=0.5;exitDx=0;exitDy=0;entryX=0;entryY=0.5;entryDx=0;entryDy=0;" parent="1" source="ntHZI_EPPsZqQo3f0jup-53" target="ntHZI_EPPsZqQo3f0jup-47" edge="1">
          <mxGeometry relative="1" as="geometry" />
        </mxCell>
        <mxCell id="ntHZI_EPPsZqQo3f0jup-53" value="mListenHandler-&amp;gt;setReadFunc()" style="rounded=0;whiteSpace=wrap;html=1;" parent="1" vertex="1">
          <mxGeometry x="2520" y="1560" width="240" height="80" as="geometry" />
        </mxCell>
        <mxCell id="ntHZI_EPPsZqQo3f0jup-55" value="bind" style="text;html=1;align=center;verticalAlign=middle;resizable=0;points=[];autosize=1;strokeColor=none;fillColor=none;" parent="1" vertex="1">
          <mxGeometry x="2590" y="1670" width="50" height="30" as="geometry" />
        </mxCell>
        <mxCell id="ntHZI_EPPsZqQo3f0jup-56" value="mConnectionFunc()&lt;br&gt;mFilterFunc()" style="rounded=0;whiteSpace=wrap;html=1;" parent="1" vertex="1">
          <mxGeometry x="2560" y="1840" width="160" height="80" as="geometry" />
        </mxCell>
        <mxCell id="ntHZI_EPPsZqQo3f0jup-58" value="call" style="text;html=1;align=center;verticalAlign=middle;resizable=0;points=[];autosize=1;strokeColor=none;fillColor=none;" parent="1" vertex="1">
          <mxGeometry x="2600" y="1790" width="40" height="30" as="geometry" />
        </mxCell>
        <mxCell id="ntHZI_EPPsZqQo3f0jup-61" value="mListenSocket.listen()" style="rounded=0;whiteSpace=wrap;html=1;" parent="1" vertex="1">
          <mxGeometry x="2840" y="1720" width="160" height="40" as="geometry" />
        </mxCell>
        <mxCell id="ntHZI_EPPsZqQo3f0jup-63" value="call" style="text;html=1;align=center;verticalAlign=middle;resizable=0;points=[];autosize=1;strokeColor=none;fillColor=none;" parent="1" vertex="1">
          <mxGeometry x="2880" y="1670" width="40" height="30" as="geometry" />
        </mxCell>
        <mxCell id="ntHZI_EPPsZqQo3f0jup-64" value="mEventLoop-&amp;gt;loop()" style="rounded=0;whiteSpace=wrap;html=1;" parent="1" vertex="1">
          <mxGeometry x="3040" y="1720" width="160" height="40" as="geometry" />
        </mxCell>
        <mxCell id="ntHZI_EPPsZqQo3f0jup-66" value="call" style="text;html=1;align=center;verticalAlign=middle;resizable=0;points=[];autosize=1;strokeColor=none;fillColor=none;" parent="1" vertex="1">
          <mxGeometry x="3080" y="1670" width="40" height="30" as="geometry" />
        </mxCell>
        <mxCell id="ntHZI_EPPsZqQo3f0jup-68" value="initialization" style="text;html=1;align=center;verticalAlign=middle;resizable=0;points=[];autosize=1;strokeColor=none;fillColor=none;" parent="1" vertex="1">
          <mxGeometry x="2090" y="1570" width="90" height="30" as="geometry" />
        </mxCell>
        <mxCell id="ntHZI_EPPsZqQo3f0jup-78" value="Poller" style="swimlane;whiteSpace=wrap;html=1;fillColor=#f8cecc;strokeColor=#b85450;startSize=40;" parent="1" vertex="1">
          <mxGeometry x="800" y="200" width="240" height="460" as="geometry">
            <mxRectangle x="400" y="230" width="140" height="30" as="alternateBounds" />
          </mxGeometry>
        </mxCell>
        <mxCell id="ntHZI_EPPsZqQo3f0jup-79" value="registerEventHandler()" style="rounded=0;whiteSpace=wrap;html=1;" parent="ntHZI_EPPsZqQo3f0jup-78" vertex="1">
          <mxGeometry x="40" y="80" width="160" height="40" as="geometry" />
        </mxCell>
        <mxCell id="ntHZI_EPPsZqQo3f0jup-81" value="update()" style="rounded=0;whiteSpace=wrap;html=1;" parent="ntHZI_EPPsZqQo3f0jup-78" vertex="1">
          <mxGeometry x="40" y="140" width="160" height="40" as="geometry" />
        </mxCell>
        <mxCell id="ntHZI_EPPsZqQo3f0jup-82" value="remove()" style="rounded=0;whiteSpace=wrap;html=1;" parent="ntHZI_EPPsZqQo3f0jup-78" vertex="1">
          <mxGeometry x="40" y="200" width="160" height="40" as="geometry" />
        </mxCell>
        <mxCell id="ntHZI_EPPsZqQo3f0jup-83" value="poll()" style="rounded=0;whiteSpace=wrap;html=1;" parent="ntHZI_EPPsZqQo3f0jup-78" vertex="1">
          <mxGeometry x="40" y="260" width="160" height="40" as="geometry" />
        </mxCell>
        <mxCell id="ntHZI_EPPsZqQo3f0jup-84" value="mEventHandlerHash" style="rounded=1;whiteSpace=wrap;html=1;arcSize=43;" parent="ntHZI_EPPsZqQo3f0jup-78" vertex="1">
          <mxGeometry x="40" y="380" width="160" height="40" as="geometry" />
        </mxCell>
        <mxCell id="ntHZI_EPPsZqQo3f0jup-104" value="" style="shape=curlyBracket;whiteSpace=wrap;html=1;rounded=1;flipH=1;labelPosition=right;verticalLabelPosition=middle;align=left;verticalAlign=middle;" parent="ntHZI_EPPsZqQo3f0jup-78" vertex="1">
          <mxGeometry x="210" y="160" width="20" height="120" as="geometry" />
        </mxCell>
        <mxCell id="ntHZI_EPPsZqQo3f0jup-85" value="mEventHandlerHash.emplace()" style="rounded=0;whiteSpace=wrap;html=1;" parent="1" vertex="1">
          <mxGeometry x="1120" y="280" width="240" height="40" as="geometry" />
        </mxCell>
        <mxCell id="ntHZI_EPPsZqQo3f0jup-90" style="edgeStyle=orthogonalEdgeStyle;rounded=0;orthogonalLoop=1;jettySize=auto;html=1;exitX=1;exitY=0.5;exitDx=0;exitDy=0;entryX=0;entryY=0.5;entryDx=0;entryDy=0;" parent="1" source="ntHZI_EPPsZqQo3f0jup-86" target="ntHZI_EPPsZqQo3f0jup-87" edge="1">
          <mxGeometry relative="1" as="geometry" />
        </mxCell>
        <mxCell id="ntHZI_EPPsZqQo3f0jup-86" value="struct epoll_event{}" style="rounded=0;whiteSpace=wrap;html=1;" parent="1" vertex="1">
          <mxGeometry x="1120" y="360" width="160" height="40" as="geometry" />
        </mxCell>
        <mxCell id="ntHZI_EPPsZqQo3f0jup-91" style="edgeStyle=orthogonalEdgeStyle;rounded=0;orthogonalLoop=1;jettySize=auto;html=1;exitX=1;exitY=0.5;exitDx=0;exitDy=0;entryX=0;entryY=0.5;entryDx=0;entryDy=0;" parent="1" source="ntHZI_EPPsZqQo3f0jup-87" target="ntHZI_EPPsZqQo3f0jup-88" edge="1">
          <mxGeometry relative="1" as="geometry" />
        </mxCell>
        <mxCell id="ntHZI_EPPsZqQo3f0jup-87" value="epoll_create()" style="rounded=0;whiteSpace=wrap;html=1;" parent="1" vertex="1">
          <mxGeometry x="1320" y="360" width="120" height="40" as="geometry" />
        </mxCell>
        <mxCell id="ntHZI_EPPsZqQo3f0jup-92" style="edgeStyle=orthogonalEdgeStyle;rounded=0;orthogonalLoop=1;jettySize=auto;html=1;exitX=1;exitY=0.5;exitDx=0;exitDy=0;entryX=0;entryY=0.5;entryDx=0;entryDy=0;" parent="1" source="ntHZI_EPPsZqQo3f0jup-88" target="ntHZI_EPPsZqQo3f0jup-89" edge="1">
          <mxGeometry relative="1" as="geometry" />
        </mxCell>
        <mxCell id="ntHZI_EPPsZqQo3f0jup-88" value="epoll_ctl()" style="rounded=0;whiteSpace=wrap;html=1;" parent="1" vertex="1">
          <mxGeometry x="1480" y="360" width="120" height="40" as="geometry" />
        </mxCell>
        <mxCell id="ntHZI_EPPsZqQo3f0jup-89" value="epoll_wait()" style="rounded=0;whiteSpace=wrap;html=1;" parent="1" vertex="1">
          <mxGeometry x="1640" y="360" width="120" height="40" as="geometry" />
        </mxCell>
        <mxCell id="ntHZI_EPPsZqQo3f0jup-95" style="edgeStyle=orthogonalEdgeStyle;rounded=0;orthogonalLoop=1;jettySize=auto;html=1;exitX=1;exitY=0.5;exitDx=0;exitDy=0;entryX=0;entryY=0.5;entryDx=0;entryDy=0;" parent="1" source="ntHZI_EPPsZqQo3f0jup-93" target="ntHZI_EPPsZqQo3f0jup-94" edge="1">
          <mxGeometry relative="1" as="geometry" />
        </mxCell>
        <mxCell id="ntHZI_EPPsZqQo3f0jup-93" value="struct pollfd{}" style="rounded=0;whiteSpace=wrap;html=1;" parent="1" vertex="1">
          <mxGeometry x="1120" y="440" width="160" height="40" as="geometry" />
        </mxCell>
        <mxCell id="ntHZI_EPPsZqQo3f0jup-94" value="poll()" style="rounded=0;whiteSpace=wrap;html=1;" parent="1" vertex="1">
          <mxGeometry x="1320" y="440" width="120" height="40" as="geometry" />
        </mxCell>
        <mxCell id="ntHZI_EPPsZqQo3f0jup-96" style="edgeStyle=orthogonalEdgeStyle;rounded=0;orthogonalLoop=1;jettySize=auto;html=1;exitX=1;exitY=0.5;exitDx=0;exitDy=0;entryX=0;entryY=0.5;entryDx=0;entryDy=0;" parent="1" source="ntHZI_EPPsZqQo3f0jup-79" target="ntHZI_EPPsZqQo3f0jup-85" edge="1">
          <mxGeometry relative="1" as="geometry" />
        </mxCell>
        <mxCell id="ntHZI_EPPsZqQo3f0jup-97" value="" style="shape=curlyBracket;whiteSpace=wrap;html=1;rounded=1;labelPosition=left;verticalLabelPosition=middle;align=right;verticalAlign=middle;" parent="1" vertex="1">
          <mxGeometry x="1100" y="360" width="20" height="120" as="geometry" />
        </mxCell>
        <mxCell id="ntHZI_EPPsZqQo3f0jup-101" value="" style="endArrow=none;html=1;rounded=0;fillColor=#f8cecc;strokeColor=#b85450;" parent="1" edge="1">
          <mxGeometry width="50" height="50" relative="1" as="geometry">
            <mxPoint x="800" y="540" as="sourcePoint" />
            <mxPoint x="1040" y="540" as="targetPoint" />
          </mxGeometry>
        </mxCell>
        <mxCell id="ntHZI_EPPsZqQo3f0jup-106" style="edgeStyle=orthogonalEdgeStyle;rounded=0;orthogonalLoop=1;jettySize=auto;html=1;exitX=0.1;exitY=0.5;exitDx=0;exitDy=0;exitPerimeter=0;entryX=0.1;entryY=0.5;entryDx=0;entryDy=0;entryPerimeter=0;" parent="1" source="ntHZI_EPPsZqQo3f0jup-104" target="ntHZI_EPPsZqQo3f0jup-97" edge="1">
          <mxGeometry relative="1" as="geometry" />
        </mxCell>
        <mxCell id="ntHZI_EPPsZqQo3f0jup-108" style="edgeStyle=orthogonalEdgeStyle;rounded=0;orthogonalLoop=1;jettySize=auto;html=1;exitX=0;exitY=0.5;exitDx=0;exitDy=0;entryX=0.5;entryY=1;entryDx=0;entryDy=0;fillColor=#f8cecc;strokeColor=#b85450;strokeWidth=2;" parent="1" source="ntHZI_EPPsZqQo3f0jup-74" target="ntHZI_EPPsZqQo3f0jup-78" edge="1">
          <mxGeometry relative="1" as="geometry" />
        </mxCell>
        <mxCell id="ntHZI_EPPsZqQo3f0jup-114" style="edgeStyle=orthogonalEdgeStyle;rounded=0;orthogonalLoop=1;jettySize=auto;html=1;exitX=1;exitY=0.5;exitDx=0;exitDy=0;entryX=0;entryY=0.5;entryDx=0;entryDy=0;fillColor=#dae8fc;strokeColor=#6c8ebf;" parent="1" source="ntHZI_EPPsZqQo3f0jup-110" target="ntHZI_EPPsZqQo3f0jup-181" edge="1">
          <mxGeometry relative="1" as="geometry">
            <mxPoint x="1840" y="820" as="targetPoint" />
          </mxGeometry>
        </mxCell>
        <mxCell id="ntHZI_EPPsZqQo3f0jup-116" style="edgeStyle=orthogonalEdgeStyle;rounded=0;orthogonalLoop=1;jettySize=auto;html=1;exitX=1;exitY=0.5;exitDx=0;exitDy=0;entryX=0;entryY=0.5;entryDx=0;entryDy=0;fillColor=#dae8fc;strokeColor=#6c8ebf;" parent="1" source="ntHZI_EPPsZqQo3f0jup-111" target="ntHZI_EPPsZqQo3f0jup-182" edge="1">
          <mxGeometry relative="1" as="geometry">
            <mxPoint x="1840" y="880" as="targetPoint" />
          </mxGeometry>
        </mxCell>
        <mxCell id="ntHZI_EPPsZqQo3f0jup-139" value="" style="endArrow=none;html=1;rounded=0;fillColor=#fff2cc;strokeColor=#d6b656;" parent="1" edge="1">
          <mxGeometry width="50" height="50" relative="1" as="geometry">
            <mxPoint x="1400" y="2760" as="sourcePoint" />
            <mxPoint x="1640" y="2760" as="targetPoint" />
          </mxGeometry>
        </mxCell>
        <mxCell id="ntHZI_EPPsZqQo3f0jup-140" value="roundRobinIndex() or fewerEventsIndex() or fasterHandledIndex()" style="shape=document;whiteSpace=wrap;html=1;boundedLbl=1;fillColor=#dae8fc;strokeColor=#6c8ebf;" parent="1" vertex="1">
          <mxGeometry x="880" y="2400" width="400" height="80" as="geometry" />
        </mxCell>
        <mxCell id="ntHZI_EPPsZqQo3f0jup-143" value="mEventLoopThreads[getDesiredIndex()].addEvent()" style="shape=document;whiteSpace=wrap;html=1;boundedLbl=1;fillColor=#dae8fc;strokeColor=#6c8ebf;" parent="1" vertex="1">
          <mxGeometry x="960" y="2500" width="320" height="80" as="geometry" />
        </mxCell>
        <mxCell id="ntHZI_EPPsZqQo3f0jup-144" value="next index of mEventLoopThreads" style="shape=document;whiteSpace=wrap;html=1;boundedLbl=1;fillColor=#dae8fc;strokeColor=#6c8ebf;" parent="1" vertex="1">
          <mxGeometry x="960" y="2600" width="320" height="80" as="geometry" />
        </mxCell>
        <mxCell id="ntHZI_EPPsZqQo3f0jup-145" value="index of mEventLoopThreads which mEventLoopThreads[index].getEventSize() is min&amp;nbsp;" style="shape=document;whiteSpace=wrap;html=1;boundedLbl=1;fillColor=#dae8fc;strokeColor=#6c8ebf;" parent="1" vertex="1">
          <mxGeometry x="880" y="2700" width="400" height="80" as="geometry" />
        </mxCell>
        <mxCell id="ntHZI_EPPsZqQo3f0jup-146" value="index of mEventLoopThreads which&amp;nbsp;mEventLoopThreads[index].getLastRate() is min" style="shape=document;whiteSpace=wrap;html=1;boundedLbl=1;fillColor=#dae8fc;strokeColor=#6c8ebf;" parent="1" vertex="1">
          <mxGeometry x="880" y="2800" width="400" height="80" as="geometry" />
        </mxCell>
        <mxCell id="ntHZI_EPPsZqQo3f0jup-152" style="edgeStyle=orthogonalEdgeStyle;rounded=0;orthogonalLoop=1;jettySize=auto;html=1;exitX=0;exitY=0.5;exitDx=0;exitDy=0;entryX=1;entryY=0.5;entryDx=0;entryDy=0;" parent="1" source="ntHZI_EPPsZqQo3f0jup-123" target="ntHZI_EPPsZqQo3f0jup-140" edge="1">
          <mxGeometry relative="1" as="geometry" />
        </mxCell>
        <mxCell id="ntHZI_EPPsZqQo3f0jup-153" style="edgeStyle=elbowEdgeStyle;rounded=0;orthogonalLoop=1;jettySize=auto;html=1;exitX=0;exitY=0.5;exitDx=0;exitDy=0;entryX=1;entryY=0.5;entryDx=0;entryDy=0;" parent="1" source="ntHZI_EPPsZqQo3f0jup-124" target="ntHZI_EPPsZqQo3f0jup-143" edge="1">
          <mxGeometry relative="1" as="geometry" />
        </mxCell>
        <mxCell id="ntHZI_EPPsZqQo3f0jup-155" style="edgeStyle=elbowEdgeStyle;rounded=0;orthogonalLoop=1;jettySize=auto;html=1;exitX=0;exitY=0.5;exitDx=0;exitDy=0;entryX=1;entryY=0.5;entryDx=0;entryDy=0;" parent="1" source="ntHZI_EPPsZqQo3f0jup-125" target="ntHZI_EPPsZqQo3f0jup-144" edge="1">
          <mxGeometry relative="1" as="geometry">
            <Array as="points">
              <mxPoint x="1320" y="2610" />
            </Array>
          </mxGeometry>
        </mxCell>
        <mxCell id="ntHZI_EPPsZqQo3f0jup-157" style="edgeStyle=elbowEdgeStyle;rounded=0;orthogonalLoop=1;jettySize=auto;html=1;exitX=0;exitY=0.5;exitDx=0;exitDy=0;entryX=1;entryY=0.5;entryDx=0;entryDy=0;" parent="1" source="ntHZI_EPPsZqQo3f0jup-126" target="ntHZI_EPPsZqQo3f0jup-145" edge="1">
          <mxGeometry relative="1" as="geometry" />
        </mxCell>
        <mxCell id="ntHZI_EPPsZqQo3f0jup-158" style="edgeStyle=elbowEdgeStyle;rounded=0;orthogonalLoop=1;jettySize=auto;html=1;exitX=0;exitY=0.5;exitDx=0;exitDy=0;entryX=1;entryY=0.5;entryDx=0;entryDy=0;" parent="1" source="ntHZI_EPPsZqQo3f0jup-127" target="ntHZI_EPPsZqQo3f0jup-146" edge="1">
          <mxGeometry relative="1" as="geometry">
            <Array as="points">
              <mxPoint x="1380" y="2770" />
            </Array>
          </mxGeometry>
        </mxCell>
        <mxCell id="ntHZI_EPPsZqQo3f0jup-159" value="mEventLoopThreads.push_back(EventLoopThread)" style="rounded=0;whiteSpace=wrap;html=1;" parent="1" vertex="1">
          <mxGeometry x="1880" y="2360" width="360" height="60" as="geometry" />
        </mxCell>
        <mxCell id="ntHZI_EPPsZqQo3f0jup-175" style="edgeStyle=orthogonalEdgeStyle;rounded=0;orthogonalLoop=1;jettySize=auto;html=1;exitX=1;exitY=0.5;exitDx=0;exitDy=0;entryX=0;entryY=0.5;entryDx=0;entryDy=0;" parent="1" source="ntHZI_EPPsZqQo3f0jup-161" target="ntHZI_EPPsZqQo3f0jup-170" edge="1">
          <mxGeometry relative="1" as="geometry" />
        </mxCell>
        <mxCell id="ntHZI_EPPsZqQo3f0jup-161" value="EventLoopThread" style="swimlane;whiteSpace=wrap;html=1;startSize=40;fillColor=#fff2cc;strokeColor=#d6b656;" parent="1" vertex="1">
          <mxGeometry x="1080" y="3080" width="240" height="580" as="geometry" />
        </mxCell>
        <mxCell id="ntHZI_EPPsZqQo3f0jup-162" value="addEvent()" style="rounded=0;whiteSpace=wrap;html=1;" parent="ntHZI_EPPsZqQo3f0jup-161" vertex="1">
          <mxGeometry x="40" y="80" width="160" height="40" as="geometry" />
        </mxCell>
        <mxCell id="ntHZI_EPPsZqQo3f0jup-163" value="removeEvent()" style="rounded=0;whiteSpace=wrap;html=1;" parent="ntHZI_EPPsZqQo3f0jup-161" vertex="1">
          <mxGeometry x="40" y="140" width="160" height="40" as="geometry" />
        </mxCell>
        <mxCell id="ntHZI_EPPsZqQo3f0jup-164" value="getEventSize()" style="rounded=0;whiteSpace=wrap;html=1;" parent="ntHZI_EPPsZqQo3f0jup-161" vertex="1">
          <mxGeometry x="40" y="200" width="160" height="40" as="geometry" />
        </mxCell>
        <mxCell id="ntHZI_EPPsZqQo3f0jup-165" value="getLastRate()" style="rounded=0;whiteSpace=wrap;html=1;" parent="ntHZI_EPPsZqQo3f0jup-161" vertex="1">
          <mxGeometry x="40" y="260" width="160" height="40" as="geometry" />
        </mxCell>
        <mxCell id="ntHZI_EPPsZqQo3f0jup-166" value="work()" style="rounded=0;whiteSpace=wrap;html=1;" parent="ntHZI_EPPsZqQo3f0jup-161" vertex="1">
          <mxGeometry x="40" y="320" width="160" height="40" as="geometry" />
        </mxCell>
        <mxCell id="ntHZI_EPPsZqQo3f0jup-167" value="mEventloop" style="rounded=1;whiteSpace=wrap;html=1;arcSize=43;" parent="ntHZI_EPPsZqQo3f0jup-161" vertex="1">
          <mxGeometry x="40" y="440" width="160" height="40" as="geometry" />
        </mxCell>
        <mxCell id="ntHZI_EPPsZqQo3f0jup-171" value="mThread" style="rounded=1;whiteSpace=wrap;html=1;arcSize=43;" parent="ntHZI_EPPsZqQo3f0jup-161" vertex="1">
          <mxGeometry x="40" y="500" width="160" height="40" as="geometry" />
        </mxCell>
        <mxCell id="ntHZI_EPPsZqQo3f0jup-168" style="edgeStyle=orthogonalEdgeStyle;rounded=0;orthogonalLoop=1;jettySize=auto;html=1;exitX=0.5;exitY=1;exitDx=0;exitDy=0;entryX=0.5;entryY=0;entryDx=0;entryDy=0;fillColor=#fff2cc;strokeColor=#d6b656;" parent="1" source="ntHZI_EPPsZqQo3f0jup-128" target="ntHZI_EPPsZqQo3f0jup-161" edge="1">
          <mxGeometry relative="1" as="geometry" />
        </mxCell>
        <mxCell id="ntHZI_EPPsZqQo3f0jup-169" style="edgeStyle=orthogonalEdgeStyle;rounded=0;orthogonalLoop=1;jettySize=auto;html=1;exitX=1;exitY=0.5;exitDx=0;exitDy=0;entryX=0.5;entryY=1;entryDx=0;entryDy=0;fillColor=#f8cecc;strokeColor=#b85450;strokeWidth=2;" parent="1" source="ntHZI_EPPsZqQo3f0jup-167" target="ntHZI_EPPsZqQo3f0jup-3" edge="1">
          <mxGeometry relative="1" as="geometry" />
        </mxCell>
        <mxCell id="ntHZI_EPPsZqQo3f0jup-173" style="edgeStyle=orthogonalEdgeStyle;rounded=0;orthogonalLoop=1;jettySize=auto;html=1;exitX=0.5;exitY=1;exitDx=0;exitDy=0;entryX=0.5;entryY=0;entryDx=0;entryDy=0;" parent="1" source="ntHZI_EPPsZqQo3f0jup-170" target="ntHZI_EPPsZqQo3f0jup-172" edge="1">
          <mxGeometry relative="1" as="geometry" />
        </mxCell>
        <mxCell id="ntHZI_EPPsZqQo3f0jup-170" value="mThread" style="rounded=0;whiteSpace=wrap;html=1;" parent="1" vertex="1">
          <mxGeometry x="1480" y="3080" width="120" height="60" as="geometry" />
        </mxCell>
        <mxCell id="ntHZI_EPPsZqQo3f0jup-178" style="edgeStyle=orthogonalEdgeStyle;rounded=0;orthogonalLoop=1;jettySize=auto;html=1;exitX=0.5;exitY=1;exitDx=0;exitDy=0;entryX=0.5;entryY=0;entryDx=0;entryDy=0;" parent="1" source="ntHZI_EPPsZqQo3f0jup-172" target="ntHZI_EPPsZqQo3f0jup-177" edge="1">
          <mxGeometry relative="1" as="geometry" />
        </mxCell>
        <mxCell id="ntHZI_EPPsZqQo3f0jup-172" value="work()" style="rounded=0;whiteSpace=wrap;html=1;" parent="1" vertex="1">
          <mxGeometry x="1480" y="3200" width="120" height="40" as="geometry" />
        </mxCell>
        <mxCell id="ntHZI_EPPsZqQo3f0jup-174" value="bind" style="text;html=1;align=center;verticalAlign=middle;resizable=0;points=[];autosize=1;strokeColor=none;fillColor=none;" parent="1" vertex="1">
          <mxGeometry x="1540" y="3160" width="50" height="30" as="geometry" />
        </mxCell>
        <mxCell id="ntHZI_EPPsZqQo3f0jup-176" value="initialization" style="text;html=1;align=center;verticalAlign=middle;resizable=0;points=[];autosize=1;strokeColor=none;fillColor=none;" parent="1" vertex="1">
          <mxGeometry x="1360" y="3200" width="90" height="30" as="geometry" />
        </mxCell>
        <mxCell id="ntHZI_EPPsZqQo3f0jup-177" value="mEventloop-&amp;gt;loop()" style="rounded=0;whiteSpace=wrap;html=1;" parent="1" vertex="1">
          <mxGeometry x="1480" y="3300" width="120" height="40" as="geometry" />
        </mxCell>
        <mxCell id="ntHZI_EPPsZqQo3f0jup-179" value="call" style="text;html=1;align=center;verticalAlign=middle;resizable=0;points=[];autosize=1;strokeColor=none;fillColor=none;" parent="1" vertex="1">
          <mxGeometry x="1540" y="3260" width="40" height="30" as="geometry" />
        </mxCell>
        <mxCell id="ntHZI_EPPsZqQo3f0jup-180" value="initialization" style="text;html=1;align=center;verticalAlign=middle;resizable=0;points=[];autosize=1;strokeColor=none;fillColor=none;" parent="1" vertex="1">
          <mxGeometry x="1760" y="2360" width="90" height="30" as="geometry" />
        </mxCell>
        <mxCell id="ntHZI_EPPsZqQo3f0jup-181" value="mPoller.mEventHandlerHash.size()" style="shape=document;whiteSpace=wrap;html=1;boundedLbl=1;fillColor=#dae8fc;strokeColor=#6c8ebf;" parent="1" vertex="1">
          <mxGeometry x="1880" y="760" width="240" height="80" as="geometry" />
        </mxCell>
        <mxCell id="ntHZI_EPPsZqQo3f0jup-182" value="rate = (time of duration in n loop) / (number of ready in n loop)" style="shape=document;whiteSpace=wrap;html=1;boundedLbl=1;fillColor=#dae8fc;strokeColor=#6c8ebf;" parent="1" vertex="1">
          <mxGeometry x="1880" y="860" width="360" height="80" as="geometry" />
        </mxCell>
        <mxCell id="ntHZI_EPPsZqQo3f0jup-234" style="edgeStyle=orthogonalEdgeStyle;rounded=0;orthogonalLoop=1;jettySize=auto;html=1;exitX=0;exitY=0.5;exitDx=0;exitDy=0;entryX=1;entryY=0.5;entryDx=0;entryDy=0;" parent="1" source="ntHZI_EPPsZqQo3f0jup-184" target="ntHZI_EPPsZqQo3f0jup-221" edge="1">
          <mxGeometry relative="1" as="geometry">
            <Array as="points">
              <mxPoint x="740" y="1741" />
              <mxPoint x="740" y="1191" />
            </Array>
          </mxGeometry>
        </mxCell>
        <mxCell id="ntHZI_EPPsZqQo3f0jup-184" value="TcpConnection" style="swimlane;whiteSpace=wrap;html=1;startSize=40;fillColor=#f8cecc;strokeColor=#b85450;" parent="1" vertex="1">
          <mxGeometry x="800" y="1141" width="240" height="1200" as="geometry" />
        </mxCell>
        <mxCell id="ntHZI_EPPsZqQo3f0jup-185" value="mConnectionSocket" style="rounded=1;whiteSpace=wrap;html=1;arcSize=43;" parent="ntHZI_EPPsZqQo3f0jup-184" vertex="1">
          <mxGeometry x="40" y="819" width="160" height="40" as="geometry" />
        </mxCell>
        <mxCell id="ntHZI_EPPsZqQo3f0jup-186" value="mInputBuffer" style="rounded=1;whiteSpace=wrap;html=1;arcSize=43;" parent="ntHZI_EPPsZqQo3f0jup-184" vertex="1">
          <mxGeometry x="40" y="940" width="160" height="40" as="geometry" />
        </mxCell>
        <mxCell id="ntHZI_EPPsZqQo3f0jup-187" value="mOutputBuffer" style="rounded=1;whiteSpace=wrap;html=1;arcSize=43;" parent="ntHZI_EPPsZqQo3f0jup-184" vertex="1">
          <mxGeometry x="40" y="1000" width="160" height="40" as="geometry" />
        </mxCell>
        <mxCell id="ntHZI_EPPsZqQo3f0jup-188" value="readFunc()" style="rounded=0;whiteSpace=wrap;html=1;" parent="ntHZI_EPPsZqQo3f0jup-184" vertex="1">
          <mxGeometry x="40" y="580" width="160" height="40" as="geometry" />
        </mxCell>
        <mxCell id="ntHZI_EPPsZqQo3f0jup-189" value="writeFunc()" style="rounded=0;whiteSpace=wrap;html=1;" parent="ntHZI_EPPsZqQo3f0jup-184" vertex="1">
          <mxGeometry x="40" y="640" width="160" height="40" as="geometry" />
        </mxCell>
        <mxCell id="ntHZI_EPPsZqQo3f0jup-190" value="closeFunc()" style="rounded=0;whiteSpace=wrap;html=1;" parent="ntHZI_EPPsZqQo3f0jup-184" vertex="1">
          <mxGeometry x="40" y="700" width="160" height="40" as="geometry" />
        </mxCell>
        <mxCell id="ntHZI_EPPsZqQo3f0jup-191" value="errorFunc()" style="rounded=0;whiteSpace=wrap;html=1;" parent="ntHZI_EPPsZqQo3f0jup-184" vertex="1">
          <mxGeometry x="40" y="760" width="160" height="40" as="geometry" />
        </mxCell>
        <mxCell id="ntHZI_EPPsZqQo3f0jup-192" value="setCloseFunc()" style="rounded=0;whiteSpace=wrap;html=1;" parent="ntHZI_EPPsZqQo3f0jup-184" vertex="1">
          <mxGeometry x="40" y="520" width="160" height="40" as="geometry" />
        </mxCell>
        <mxCell id="ntHZI_EPPsZqQo3f0jup-193" value="setMessageFunc()" style="rounded=0;whiteSpace=wrap;html=1;" parent="ntHZI_EPPsZqQo3f0jup-184" vertex="1">
          <mxGeometry x="40" y="460" width="160" height="40" as="geometry" />
        </mxCell>
        <mxCell id="ntHZI_EPPsZqQo3f0jup-194" value="putToBuffer()" style="rounded=0;whiteSpace=wrap;html=1;" parent="ntHZI_EPPsZqQo3f0jup-184" vertex="1">
          <mxGeometry x="40" y="140" width="160" height="40" as="geometry" />
        </mxCell>
        <mxCell id="ntHZI_EPPsZqQo3f0jup-195" value="get()" style="rounded=0;whiteSpace=wrap;html=1;" parent="ntHZI_EPPsZqQo3f0jup-184" vertex="1">
          <mxGeometry x="40" y="200" width="160" height="40" as="geometry" />
        </mxCell>
        <mxCell id="ntHZI_EPPsZqQo3f0jup-196" value="tryGet()" style="rounded=0;whiteSpace=wrap;html=1;" parent="ntHZI_EPPsZqQo3f0jup-184" vertex="1">
          <mxGeometry x="40" y="259" width="160" height="40" as="geometry" />
        </mxCell>
        <mxCell id="ntHZI_EPPsZqQo3f0jup-197" value="send()" style="rounded=0;whiteSpace=wrap;html=1;" parent="ntHZI_EPPsZqQo3f0jup-184" vertex="1">
          <mxGeometry x="40" y="80" width="160" height="40" as="geometry" />
        </mxCell>
        <mxCell id="ntHZI_EPPsZqQo3f0jup-198" value="mCloseFunc" style="rounded=1;whiteSpace=wrap;html=1;arcSize=43;" parent="ntHZI_EPPsZqQo3f0jup-184" vertex="1">
          <mxGeometry x="40" y="1061" width="160" height="40" as="geometry" />
        </mxCell>
        <mxCell id="ntHZI_EPPsZqQo3f0jup-199" value="mCloseFunc" style="rounded=1;whiteSpace=wrap;html=1;arcSize=43;" parent="ntHZI_EPPsZqQo3f0jup-184" vertex="1">
          <mxGeometry x="40" y="1120" width="160" height="40" as="geometry" />
        </mxCell>
        <mxCell id="ntHZI_EPPsZqQo3f0jup-222" value="mConnectionHandlerPtr" style="rounded=1;whiteSpace=wrap;html=1;arcSize=43;" parent="ntHZI_EPPsZqQo3f0jup-184" vertex="1">
          <mxGeometry x="40" y="879" width="160" height="40" as="geometry" />
        </mxCell>
        <mxCell id="ntHZI_EPPsZqQo3f0jup-252" value="activeClose()" style="rounded=0;whiteSpace=wrap;html=1;" parent="ntHZI_EPPsZqQo3f0jup-184" vertex="1">
          <mxGeometry x="40" y="319" width="160" height="40" as="geometry" />
        </mxCell>
        <mxCell id="ntHZI_EPPsZqQo3f0jup-183" style="edgeStyle=orthogonalEdgeStyle;rounded=0;orthogonalLoop=1;jettySize=auto;html=1;exitX=0;exitY=0.5;exitDx=0;exitDy=0;fillColor=#f8cecc;strokeColor=#b85450;entryX=1;entryY=0.5;entryDx=0;entryDy=0;strokeWidth=2;" parent="1" source="ntHZI_EPPsZqQo3f0jup-117" target="ntHZI_EPPsZqQo3f0jup-184" edge="1">
          <mxGeometry relative="1" as="geometry">
            <mxPoint x="840" y="1760" as="targetPoint" />
          </mxGeometry>
        </mxCell>
        <mxCell id="ntHZI_EPPsZqQo3f0jup-200" value="IOBuffer" style="swimlane;whiteSpace=wrap;html=1;startSize=40;fillColor=#f8cecc;strokeColor=#b85450;" parent="1" vertex="1">
          <mxGeometry x="560" y="2640" width="240" height="460" as="geometry" />
        </mxCell>
        <mxCell id="ntHZI_EPPsZqQo3f0jup-204" value="put" style="rounded=0;whiteSpace=wrap;html=1;" parent="ntHZI_EPPsZqQo3f0jup-200" vertex="1">
          <mxGeometry x="40" y="80" width="160" height="40" as="geometry" />
        </mxCell>
        <mxCell id="ntHZI_EPPsZqQo3f0jup-205" value="mDataQueue" style="rounded=1;whiteSpace=wrap;html=1;arcSize=43;" parent="ntHZI_EPPsZqQo3f0jup-200" vertex="1">
          <mxGeometry x="40" y="380" width="160" height="40" as="geometry" />
        </mxCell>
        <mxCell id="ntHZI_EPPsZqQo3f0jup-206" value="get" style="rounded=0;whiteSpace=wrap;html=1;" parent="ntHZI_EPPsZqQo3f0jup-200" vertex="1">
          <mxGeometry x="40" y="140" width="160" height="40" as="geometry" />
        </mxCell>
        <mxCell id="ntHZI_EPPsZqQo3f0jup-207" value="read" style="rounded=0;whiteSpace=wrap;html=1;" parent="ntHZI_EPPsZqQo3f0jup-200" vertex="1">
          <mxGeometry x="40" y="200" width="160" height="40" as="geometry" />
        </mxCell>
        <mxCell id="ntHZI_EPPsZqQo3f0jup-208" value="write" style="rounded=0;whiteSpace=wrap;html=1;" parent="ntHZI_EPPsZqQo3f0jup-200" vertex="1">
          <mxGeometry x="40" y="260" width="160" height="40" as="geometry" />
        </mxCell>
        <mxCell id="ntHZI_EPPsZqQo3f0jup-219" value="" style="endArrow=none;html=1;rounded=0;fillColor=#f8cecc;strokeColor=#b85450;" parent="ntHZI_EPPsZqQo3f0jup-200" edge="1">
          <mxGeometry width="50" height="50" relative="1" as="geometry">
            <mxPoint y="340" as="sourcePoint" />
            <mxPoint x="240" y="340" as="targetPoint" />
          </mxGeometry>
        </mxCell>
        <mxCell id="ntHZI_EPPsZqQo3f0jup-203" style="edgeStyle=orthogonalEdgeStyle;rounded=0;orthogonalLoop=1;jettySize=auto;html=1;exitX=0;exitY=0.5;exitDx=0;exitDy=0;fillColor=#f8cecc;strokeColor=#b85450;strokeWidth=2;entryX=0.5;entryY=0;entryDx=0;entryDy=0;" parent="1" source="ntHZI_EPPsZqQo3f0jup-187" target="ntHZI_EPPsZqQo3f0jup-200" edge="1">
          <mxGeometry relative="1" as="geometry">
            <mxPoint x="400" y="1520" as="targetPoint" />
          </mxGeometry>
        </mxCell>
        <mxCell id="ntHZI_EPPsZqQo3f0jup-210" value="mDataQueue.push(strPtr)" style="strokeWidth=2;html=1;shape=mxgraph.flowchart.document2;whiteSpace=wrap;size=0.25;fillColor=#dae8fc;strokeColor=#6c8ebf;" parent="1" vertex="1">
          <mxGeometry x="240" y="2660" width="240" height="80" as="geometry" />
        </mxCell>
        <mxCell id="ntHZI_EPPsZqQo3f0jup-211" style="edgeStyle=orthogonalEdgeStyle;rounded=0;orthogonalLoop=1;jettySize=auto;html=1;exitX=0;exitY=0.5;exitDx=0;exitDy=0;entryX=1;entryY=0.5;entryDx=0;entryDy=0;entryPerimeter=0;fillColor=#dae8fc;strokeColor=#6c8ebf;" parent="1" source="ntHZI_EPPsZqQo3f0jup-204" target="ntHZI_EPPsZqQo3f0jup-210" edge="1">
          <mxGeometry relative="1" as="geometry" />
        </mxCell>
        <mxCell id="ntHZI_EPPsZqQo3f0jup-212" value="get strPtr, mDataQueue.pop()" style="strokeWidth=2;html=1;shape=mxgraph.flowchart.document2;whiteSpace=wrap;size=0.25;fillColor=#dae8fc;strokeColor=#6c8ebf;" parent="1" vertex="1">
          <mxGeometry x="240" y="2760" width="240" height="80" as="geometry" />
        </mxCell>
        <mxCell id="ntHZI_EPPsZqQo3f0jup-213" style="edgeStyle=elbowEdgeStyle;rounded=0;orthogonalLoop=1;jettySize=auto;html=1;exitX=0;exitY=0.5;exitDx=0;exitDy=0;entryX=1;entryY=0.5;entryDx=0;entryDy=0;entryPerimeter=0;fillColor=#dae8fc;strokeColor=#6c8ebf;" parent="1" source="ntHZI_EPPsZqQo3f0jup-206" target="ntHZI_EPPsZqQo3f0jup-212" edge="1">
          <mxGeometry relative="1" as="geometry" />
        </mxCell>
        <mxCell id="ntHZI_EPPsZqQo3f0jup-214" value="readv(), read" style="strokeWidth=2;html=1;shape=mxgraph.flowchart.document2;whiteSpace=wrap;size=0.25;fillColor=#dae8fc;strokeColor=#6c8ebf;" parent="1" vertex="1">
          <mxGeometry x="240" y="2860" width="160" height="80" as="geometry" />
        </mxCell>
        <mxCell id="ntHZI_EPPsZqQo3f0jup-215" style="edgeStyle=elbowEdgeStyle;rounded=0;orthogonalLoop=1;jettySize=auto;html=1;exitX=0;exitY=0.5;exitDx=0;exitDy=0;entryX=1;entryY=0.5;entryDx=0;entryDy=0;entryPerimeter=0;fillColor=#dae8fc;strokeColor=#6c8ebf;" parent="1" source="ntHZI_EPPsZqQo3f0jup-207" target="ntHZI_EPPsZqQo3f0jup-214" edge="1">
          <mxGeometry relative="1" as="geometry" />
        </mxCell>
        <mxCell id="ntHZI_EPPsZqQo3f0jup-216" value="write()" style="strokeWidth=2;html=1;shape=mxgraph.flowchart.document2;whiteSpace=wrap;size=0.25;fillColor=#dae8fc;strokeColor=#6c8ebf;" parent="1" vertex="1">
          <mxGeometry x="240" y="2960" width="160" height="80" as="geometry" />
        </mxCell>
        <mxCell id="ntHZI_EPPsZqQo3f0jup-218" style="rounded=0;orthogonalLoop=1;jettySize=auto;html=1;exitX=0;exitY=0.5;exitDx=0;exitDy=0;entryX=1;entryY=0.5;entryDx=0;entryDy=0;entryPerimeter=0;fillColor=#dae8fc;strokeColor=#6c8ebf;edgeStyle=elbowEdgeStyle;" parent="1" source="ntHZI_EPPsZqQo3f0jup-208" target="ntHZI_EPPsZqQo3f0jup-216" edge="1">
          <mxGeometry relative="1" as="geometry" />
        </mxCell>
        <mxCell id="ntHZI_EPPsZqQo3f0jup-221" value="mConnectionHandlerPtr-&amp;gt;setReadFunc()&lt;br&gt;mConnectionHandlerPtr-&amp;gt;setWriteFunc()&lt;br&gt;mConnectionHandlerPtr-&amp;gt;setCloseFunc()&lt;br&gt;mConnectionHandlerPtr-&amp;gt;setErrorFunc()&lt;span style=&quot;background-color: initial;&quot;&gt;&lt;br&gt;&lt;/span&gt;" style="rounded=0;whiteSpace=wrap;html=1;" parent="1" vertex="1">
          <mxGeometry x="360" y="1141" width="280" height="99" as="geometry" />
        </mxCell>
        <mxCell id="ntHZI_EPPsZqQo3f0jup-224" style="edgeStyle=orthogonalEdgeStyle;rounded=0;orthogonalLoop=1;jettySize=auto;html=1;exitX=0;exitY=0.5;exitDx=0;exitDy=0;entryX=0.5;entryY=0;entryDx=0;entryDy=0;fillColor=#f8cecc;strokeColor=#b85450;strokeWidth=2;" parent="1" source="ntHZI_EPPsZqQo3f0jup-186" target="ntHZI_EPPsZqQo3f0jup-200" edge="1">
          <mxGeometry relative="1" as="geometry" />
        </mxCell>
        <mxCell id="ntHZI_EPPsZqQo3f0jup-225" value="EventHandler" style="swimlane;whiteSpace=wrap;html=1;startSize=40;fillColor=#f8cecc;strokeColor=#b85450;" parent="1" vertex="1">
          <mxGeometry x="400" y="2080" width="240" height="520" as="geometry" />
        </mxCell>
        <mxCell id="ntHZI_EPPsZqQo3f0jup-226" value="setReadFunc()" style="rounded=0;whiteSpace=wrap;html=1;" parent="ntHZI_EPPsZqQo3f0jup-225" vertex="1">
          <mxGeometry x="40" y="81" width="160" height="39" as="geometry" />
        </mxCell>
        <mxCell id="ntHZI_EPPsZqQo3f0jup-227" value="setWriteFunc()" style="rounded=0;whiteSpace=wrap;html=1;" parent="ntHZI_EPPsZqQo3f0jup-225" vertex="1">
          <mxGeometry x="40" y="141" width="160" height="39" as="geometry" />
        </mxCell>
        <mxCell id="ntHZI_EPPsZqQo3f0jup-228" value="setCloseFunc()" style="rounded=0;whiteSpace=wrap;html=1;" parent="ntHZI_EPPsZqQo3f0jup-225" vertex="1">
          <mxGeometry x="40" y="200.5" width="160" height="39" as="geometry" />
        </mxCell>
        <mxCell id="ntHZI_EPPsZqQo3f0jup-229" value="setErrorFunc()" style="rounded=0;whiteSpace=wrap;html=1;" parent="ntHZI_EPPsZqQo3f0jup-225" vertex="1">
          <mxGeometry x="40" y="260" width="160" height="39" as="geometry" />
        </mxCell>
        <mxCell id="ntHZI_EPPsZqQo3f0jup-230" value="doEvnet()" style="rounded=0;whiteSpace=wrap;html=1;" parent="ntHZI_EPPsZqQo3f0jup-225" vertex="1">
          <mxGeometry x="40" y="440" width="160" height="39" as="geometry" />
        </mxCell>
        <mxCell id="ntHZI_EPPsZqQo3f0jup-239" value="enableReading()" style="rounded=0;whiteSpace=wrap;html=1;" parent="ntHZI_EPPsZqQo3f0jup-225" vertex="1">
          <mxGeometry x="40" y="320" width="160" height="39" as="geometry" />
        </mxCell>
        <mxCell id="ntHZI_EPPsZqQo3f0jup-240" value="enableWriting()" style="rounded=0;whiteSpace=wrap;html=1;" parent="ntHZI_EPPsZqQo3f0jup-225" vertex="1">
          <mxGeometry x="40" y="380" width="160" height="39" as="geometry" />
        </mxCell>
        <mxCell id="ntHZI_EPPsZqQo3f0jup-231" style="edgeStyle=orthogonalEdgeStyle;rounded=0;orthogonalLoop=1;jettySize=auto;html=1;exitX=0;exitY=0.5;exitDx=0;exitDy=0;entryX=0.5;entryY=0;entryDx=0;entryDy=0;fillColor=#f8cecc;strokeColor=#b85450;strokeWidth=2;" parent="1" source="ntHZI_EPPsZqQo3f0jup-222" target="ntHZI_EPPsZqQo3f0jup-225" edge="1">
          <mxGeometry relative="1" as="geometry" />
        </mxCell>
        <mxCell id="ntHZI_EPPsZqQo3f0jup-232" value="(POLLHUP &amp;amp;&amp;amp; !POLLIN),&amp;nbsp;mCloseFunc()&lt;br&gt;(POLLNVAL || POLLERR),&amp;nbsp;mErrorFunc()&lt;br&gt;(POLLIN || POLLPRI || POLLRDHUP),&amp;nbsp;mReadFunc()&lt;br&gt;(POLLOUT),&amp;nbsp;mWriteFunc()" style="strokeWidth=2;html=1;shape=mxgraph.flowchart.document2;whiteSpace=wrap;size=0.25;fillColor=#dae8fc;strokeColor=#6c8ebf;" parent="1" vertex="1">
          <mxGeometry x="40" y="2480.5" width="320" height="119.5" as="geometry" />
        </mxCell>
        <mxCell id="ntHZI_EPPsZqQo3f0jup-233" style="edgeStyle=orthogonalEdgeStyle;rounded=0;orthogonalLoop=1;jettySize=auto;html=1;exitX=0;exitY=0.5;exitDx=0;exitDy=0;entryX=1;entryY=0.5;entryDx=0;entryDy=0;entryPerimeter=0;fillColor=#dae8fc;strokeColor=#6c8ebf;strokeWidth=2;" parent="1" source="ntHZI_EPPsZqQo3f0jup-230" target="ntHZI_EPPsZqQo3f0jup-232" edge="1">
          <mxGeometry relative="1" as="geometry" />
        </mxCell>
        <mxCell id="ntHZI_EPPsZqQo3f0jup-235" value="initialization" style="text;html=1;align=center;verticalAlign=middle;resizable=0;points=[];autosize=1;strokeColor=none;fillColor=none;" parent="1" vertex="1">
          <mxGeometry x="650" y="1160" width="90" height="30" as="geometry" />
        </mxCell>
        <mxCell id="ntHZI_EPPsZqQo3f0jup-236" value="strPtr = mOutputBuffer.get()&lt;br&gt;if strPtr == nullptr, mOutputBuffer.write(data) directly; else,&amp;nbsp;mOutputBuffer.write(strPtr.data), mOutputBuffer.put(data)&lt;br&gt;mConnectionHandlerPtr-&amp;gt;enableWriting()" style="strokeWidth=2;html=1;shape=mxgraph.flowchart.document2;whiteSpace=wrap;size=0.25;fillColor=#dae8fc;strokeColor=#6c8ebf;" parent="1" vertex="1">
          <mxGeometry x="120" y="1280" width="360" height="140" as="geometry" />
        </mxCell>
        <mxCell id="ntHZI_EPPsZqQo3f0jup-241" value="POLLIN | POLLPRI" style="strokeWidth=2;html=1;shape=mxgraph.flowchart.document2;whiteSpace=wrap;size=0.25;fillColor=#dae8fc;strokeColor=#6c8ebf;" parent="1" vertex="1">
          <mxGeometry x="40" y="2280" width="160" height="80" as="geometry" />
        </mxCell>
        <mxCell id="ntHZI_EPPsZqQo3f0jup-242" value="POLLOUT" style="strokeWidth=2;html=1;shape=mxgraph.flowchart.document2;whiteSpace=wrap;size=0.25;fillColor=#dae8fc;strokeColor=#6c8ebf;" parent="1" vertex="1">
          <mxGeometry x="40" y="2380" width="160" height="80" as="geometry" />
        </mxCell>
        <mxCell id="ntHZI_EPPsZqQo3f0jup-243" style="edgeStyle=orthogonalEdgeStyle;rounded=0;orthogonalLoop=1;jettySize=auto;html=1;exitX=0;exitY=0.5;exitDx=0;exitDy=0;fillColor=#dae8fc;strokeColor=#6c8ebf;" parent="1" source="ntHZI_EPPsZqQo3f0jup-240" target="ntHZI_EPPsZqQo3f0jup-242" edge="1">
          <mxGeometry relative="1" as="geometry">
            <Array as="points">
              <mxPoint x="380" y="2480" />
              <mxPoint x="380" y="2420" />
            </Array>
          </mxGeometry>
        </mxCell>
        <mxCell id="ntHZI_EPPsZqQo3f0jup-244" style="edgeStyle=orthogonalEdgeStyle;rounded=0;orthogonalLoop=1;jettySize=auto;html=1;exitX=0;exitY=0.5;exitDx=0;exitDy=0;entryX=1;entryY=0.5;entryDx=0;entryDy=0;entryPerimeter=0;fillColor=#dae8fc;strokeColor=#6c8ebf;" parent="1" source="ntHZI_EPPsZqQo3f0jup-239" target="ntHZI_EPPsZqQo3f0jup-241" edge="1">
          <mxGeometry relative="1" as="geometry">
            <Array as="points">
              <mxPoint x="420" y="2420" />
              <mxPoint x="420" y="2320" />
            </Array>
          </mxGeometry>
        </mxCell>
        <mxCell id="ntHZI_EPPsZqQo3f0jup-245" style="edgeStyle=orthogonalEdgeStyle;rounded=0;orthogonalLoop=1;jettySize=auto;html=1;exitX=0;exitY=0.5;exitDx=0;exitDy=0;entryX=1;entryY=0.5;entryDx=0;entryDy=0;entryPerimeter=0;fillColor=#dae8fc;strokeColor=#6c8ebf;" parent="1" source="ntHZI_EPPsZqQo3f0jup-197" target="ntHZI_EPPsZqQo3f0jup-236" edge="1">
          <mxGeometry relative="1" as="geometry">
            <Array as="points">
              <mxPoint x="700" y="1241" />
              <mxPoint x="700" y="1350" />
            </Array>
          </mxGeometry>
        </mxCell>
        <mxCell id="ntHZI_EPPsZqQo3f0jup-246" value="mOutputBuffer.put(data)&lt;br&gt;mConnectionHandlerPtr-&amp;gt;enableWriting()" style="strokeWidth=2;html=1;shape=mxgraph.flowchart.document2;whiteSpace=wrap;size=0.25;fillColor=#dae8fc;strokeColor=#6c8ebf;" parent="1" vertex="1">
          <mxGeometry x="120" y="1440" width="280" height="80" as="geometry" />
        </mxCell>
        <mxCell id="ntHZI_EPPsZqQo3f0jup-247" value="mInputBuffer.get()" style="strokeWidth=2;html=1;shape=mxgraph.flowchart.document2;whiteSpace=wrap;size=0.25;fillColor=#dae8fc;strokeColor=#6c8ebf;" parent="1" vertex="1">
          <mxGeometry x="120" y="1540" width="160" height="80" as="geometry" />
        </mxCell>
        <mxCell id="ntHZI_EPPsZqQo3f0jup-248" value="if takeAway, get data, and remove it from&amp;nbsp;mIncompleteMessage&lt;br&gt;else, get data, but keep it in mIncompleteMessage&lt;br&gt;use it for get complete message from tcp stream&amp;nbsp;" style="strokeWidth=2;html=1;shape=mxgraph.flowchart.document2;whiteSpace=wrap;size=0.25;fillColor=#dae8fc;strokeColor=#6c8ebf;" parent="1" vertex="1">
          <mxGeometry x="120" y="1640" width="400" height="120" as="geometry" />
        </mxCell>
        <mxCell id="ntHZI_EPPsZqQo3f0jup-249" style="edgeStyle=orthogonalEdgeStyle;rounded=0;orthogonalLoop=1;jettySize=auto;html=1;exitX=0;exitY=0.5;exitDx=0;exitDy=0;entryX=1;entryY=0.5;entryDx=0;entryDy=0;entryPerimeter=0;fillColor=#dae8fc;strokeColor=#6c8ebf;" parent="1" source="ntHZI_EPPsZqQo3f0jup-194" target="ntHZI_EPPsZqQo3f0jup-246" edge="1">
          <mxGeometry relative="1" as="geometry" />
        </mxCell>
        <mxCell id="ntHZI_EPPsZqQo3f0jup-250" style="edgeStyle=orthogonalEdgeStyle;rounded=0;orthogonalLoop=1;jettySize=auto;html=1;exitX=0;exitY=0.5;exitDx=0;exitDy=0;entryX=1;entryY=0.5;entryDx=0;entryDy=0;entryPerimeter=0;fillColor=#dae8fc;strokeColor=#6c8ebf;" parent="1" source="ntHZI_EPPsZqQo3f0jup-195" target="ntHZI_EPPsZqQo3f0jup-247" edge="1">
          <mxGeometry relative="1" as="geometry" />
        </mxCell>
        <mxCell id="ntHZI_EPPsZqQo3f0jup-251" style="edgeStyle=orthogonalEdgeStyle;rounded=0;orthogonalLoop=1;jettySize=auto;html=1;exitX=0;exitY=0.5;exitDx=0;exitDy=0;entryX=1;entryY=0.5;entryDx=0;entryDy=0;entryPerimeter=0;fillColor=#dae8fc;strokeColor=#6c8ebf;" parent="1" source="ntHZI_EPPsZqQo3f0jup-196" target="ntHZI_EPPsZqQo3f0jup-248" edge="1">
          <mxGeometry relative="1" as="geometry">
            <Array as="points">
              <mxPoint x="660" y="1420" />
              <mxPoint x="660" y="1700" />
            </Array>
          </mxGeometry>
        </mxCell>
        <mxCell id="ntHZI_EPPsZqQo3f0jup-253" value="close() directly&lt;br&gt;or, set SO_LINGER, close() trigger RST" style="strokeWidth=2;html=1;shape=mxgraph.flowchart.document2;whiteSpace=wrap;size=0.25;fillColor=#dae8fc;strokeColor=#6c8ebf;" parent="1" vertex="1">
          <mxGeometry x="120" y="1780" width="280" height="100" as="geometry" />
        </mxCell>
        <mxCell id="ntHZI_EPPsZqQo3f0jup-254" style="edgeStyle=orthogonalEdgeStyle;rounded=0;orthogonalLoop=1;jettySize=auto;html=1;exitX=0;exitY=0.5;exitDx=0;exitDy=0;entryX=1;entryY=0.5;entryDx=0;entryDy=0;entryPerimeter=0;fillColor=#dae8fc;strokeColor=#6c8ebf;" parent="1" source="ntHZI_EPPsZqQo3f0jup-252" target="ntHZI_EPPsZqQo3f0jup-253" edge="1">
          <mxGeometry relative="1" as="geometry">
            <Array as="points">
              <mxPoint x="700" y="1480" />
              <mxPoint x="700" y="1830" />
            </Array>
          </mxGeometry>
        </mxCell>
        <mxCell id="ntHZI_EPPsZqQo3f0jup-262" style="edgeStyle=orthogonalEdgeStyle;rounded=0;orthogonalLoop=1;jettySize=auto;html=1;entryX=0;entryY=0.5;entryDx=0;entryDy=0;" parent="1" source="ntHZI_EPPsZqQo3f0jup-255" target="ntHZI_EPPsZqQo3f0jup-258" edge="1">
          <mxGeometry relative="1" as="geometry" />
        </mxCell>
        <mxCell id="ntHZI_EPPsZqQo3f0jup-255" value="mAcceptor&lt;br&gt;mAcceptor-&amp;gt;setConnectionFunc&lt;br&gt;mEventLoopThreadpool" style="rounded=0;whiteSpace=wrap;html=1;" parent="1" vertex="1">
          <mxGeometry x="1840" y="1080" width="240" height="80" as="geometry" />
        </mxCell>
        <mxCell id="ntHZI_EPPsZqQo3f0jup-257" value="initialization" style="text;html=1;align=center;verticalAlign=middle;resizable=0;points=[];autosize=1;strokeColor=none;fillColor=none;" parent="1" vertex="1">
          <mxGeometry x="1520" y="1120" width="90" height="30" as="geometry" />
        </mxCell>
        <mxCell id="ntHZI_EPPsZqQo3f0jup-260" style="edgeStyle=orthogonalEdgeStyle;rounded=0;orthogonalLoop=1;jettySize=auto;html=1;entryX=0.5;entryY=0;entryDx=0;entryDy=0;" parent="1" source="ntHZI_EPPsZqQo3f0jup-258" target="ntHZI_EPPsZqQo3f0jup-259" edge="1">
          <mxGeometry relative="1" as="geometry" />
        </mxCell>
        <mxCell id="ntHZI_EPPsZqQo3f0jup-268" style="edgeStyle=orthogonalEdgeStyle;rounded=0;orthogonalLoop=1;jettySize=auto;html=1;entryX=0;entryY=0.5;entryDx=0;entryDy=0;" parent="1" source="ntHZI_EPPsZqQo3f0jup-258" target="ntHZI_EPPsZqQo3f0jup-263" edge="1">
          <mxGeometry relative="1" as="geometry" />
        </mxCell>
        <mxCell id="ntHZI_EPPsZqQo3f0jup-258" value="mTimerTasksThread" style="rounded=0;whiteSpace=wrap;html=1;" parent="1" vertex="1">
          <mxGeometry x="2160" y="1080" width="160" height="80" as="geometry" />
        </mxCell>
        <mxCell id="ntHZI_EPPsZqQo3f0jup-259" value="timerWork()" style="rounded=0;whiteSpace=wrap;html=1;" parent="1" vertex="1">
          <mxGeometry x="2180" y="1241" width="120" height="39" as="geometry" />
        </mxCell>
        <mxCell id="ntHZI_EPPsZqQo3f0jup-261" value="bind" style="text;html=1;align=center;verticalAlign=middle;resizable=0;points=[];autosize=1;strokeColor=none;fillColor=none;" parent="1" vertex="1">
          <mxGeometry x="2190" y="1190" width="50" height="30" as="geometry" />
        </mxCell>
        <mxCell id="ntHZI_EPPsZqQo3f0jup-269" style="edgeStyle=orthogonalEdgeStyle;rounded=0;orthogonalLoop=1;jettySize=auto;html=1;entryX=0;entryY=0.5;entryDx=0;entryDy=0;" parent="1" source="ntHZI_EPPsZqQo3f0jup-263" target="ntHZI_EPPsZqQo3f0jup-265" edge="1">
          <mxGeometry relative="1" as="geometry" />
        </mxCell>
        <mxCell id="ntHZI_EPPsZqQo3f0jup-263" value="registerTimerTask()" style="rounded=0;whiteSpace=wrap;html=1;" parent="1" vertex="1">
          <mxGeometry x="2360" y="1080" width="160" height="80" as="geometry" />
        </mxCell>
        <mxCell id="ntHZI_EPPsZqQo3f0jup-270" style="edgeStyle=orthogonalEdgeStyle;rounded=0;orthogonalLoop=1;jettySize=auto;html=1;entryX=0;entryY=0.5;entryDx=0;entryDy=0;" parent="1" source="ntHZI_EPPsZqQo3f0jup-265" target="ntHZI_EPPsZqQo3f0jup-266" edge="1">
          <mxGeometry relative="1" as="geometry" />
        </mxCell>
        <mxCell id="ntHZI_EPPsZqQo3f0jup-265" value="setBenchTask()" style="rounded=0;whiteSpace=wrap;html=1;" parent="1" vertex="1">
          <mxGeometry x="2560" y="1080" width="160" height="80" as="geometry" />
        </mxCell>
        <mxCell id="ntHZI_EPPsZqQo3f0jup-271" style="edgeStyle=orthogonalEdgeStyle;rounded=0;orthogonalLoop=1;jettySize=auto;html=1;entryX=0;entryY=0.5;entryDx=0;entryDy=0;" parent="1" source="ntHZI_EPPsZqQo3f0jup-266" target="ntHZI_EPPsZqQo3f0jup-267" edge="1">
          <mxGeometry relative="1" as="geometry" />
        </mxCell>
        <mxCell id="ntHZI_EPPsZqQo3f0jup-266" value="setMessageFunc()" style="rounded=0;whiteSpace=wrap;html=1;" parent="1" vertex="1">
          <mxGeometry x="2760" y="1080" width="160" height="80" as="geometry" />
        </mxCell>
        <mxCell id="ntHZI_EPPsZqQo3f0jup-274" style="edgeStyle=orthogonalEdgeStyle;rounded=0;orthogonalLoop=1;jettySize=auto;html=1;entryX=0.5;entryY=0;entryDx=0;entryDy=0;" parent="1" source="ntHZI_EPPsZqQo3f0jup-267" target="ntHZI_EPPsZqQo3f0jup-273" edge="1">
          <mxGeometry relative="1" as="geometry" />
        </mxCell>
        <mxCell id="ntHZI_EPPsZqQo3f0jup-267" value="start()" style="rounded=0;whiteSpace=wrap;html=1;" parent="1" vertex="1">
          <mxGeometry x="2960" y="1080" width="160" height="80" as="geometry" />
        </mxCell>
        <mxCell id="ntHZI_EPPsZqQo3f0jup-273" value="&lt;div&gt;mAcceptor-&amp;gt;listen()&lt;/div&gt;&lt;div&gt;mAcceptor-&amp;gt;run()&lt;/div&gt;" style="rounded=0;whiteSpace=wrap;html=1;" parent="1" vertex="1">
          <mxGeometry x="2980" y="1241" width="120" height="60" as="geometry" />
        </mxCell>
        <mxCell id="ntHZI_EPPsZqQo3f0jup-275" value="call" style="text;html=1;align=center;verticalAlign=middle;resizable=0;points=[];autosize=1;strokeColor=none;fillColor=none;" parent="1" vertex="1">
          <mxGeometry x="3000" y="1190" width="40" height="30" as="geometry" />
        </mxCell>
        <mxCell id="D7ikYS8tj5oTR3qPuF1m-2" value="invoke&amp;nbsp;it when new connection established" style="strokeWidth=2;html=1;shape=mxgraph.flowchart.document2;whiteSpace=wrap;size=0.25;fillColor=#dae8fc;strokeColor=#6c8ebf;" parent="1" vertex="1">
          <mxGeometry x="1560" y="1200" width="280" height="80" as="geometry" />
        </mxCell>
        <mxCell id="D7ikYS8tj5oTR3qPuF1m-3" style="edgeStyle=orthogonalEdgeStyle;rounded=0;orthogonalLoop=1;jettySize=auto;html=1;exitX=1;exitY=0.5;exitDx=0;exitDy=0;entryX=0;entryY=0.5;entryDx=0;entryDy=0;entryPerimeter=0;fillColor=#dae8fc;strokeColor=#6c8ebf;" parent="1" source="ntHZI_EPPsZqQo3f0jup-118" target="D7ikYS8tj5oTR3qPuF1m-2" edge="1">
          <mxGeometry relative="1" as="geometry" />
        </mxCell>
        <mxCell id="D7ikYS8tj5oTR3qPuF1m-4" value="invoke&amp;nbsp;it when get message from network" style="strokeWidth=2;html=1;shape=mxgraph.flowchart.document2;whiteSpace=wrap;size=0.25;fillColor=#dae8fc;strokeColor=#6c8ebf;" parent="1" vertex="1">
          <mxGeometry x="1600" y="1301" width="280" height="80" as="geometry" />
        </mxCell>
        <mxCell id="D7ikYS8tj5oTR3qPuF1m-5" style="edgeStyle=orthogonalEdgeStyle;rounded=0;orthogonalLoop=1;jettySize=auto;html=1;exitX=1;exitY=0.5;exitDx=0;exitDy=0;entryX=0;entryY=0.5;entryDx=0;entryDy=0;entryPerimeter=0;fillColor=#dae8fc;strokeColor=#6c8ebf;" parent="1" source="ntHZI_EPPsZqQo3f0jup-121" target="D7ikYS8tj5oTR3qPuF1m-4" edge="1">
          <mxGeometry relative="1" as="geometry" />
        </mxCell>
        <mxCell id="D7ikYS8tj5oTR3qPuF1m-6" value="unordered_map&amp;lt;id, timerTaskFunc&amp;gt;" style="strokeWidth=2;html=1;shape=mxgraph.flowchart.document2;whiteSpace=wrap;size=0.25;fillColor=#dae8fc;strokeColor=#6c8ebf;" parent="1" vertex="1">
          <mxGeometry x="2081" y="2640" width="239" height="80" as="geometry" />
        </mxCell>
        <mxCell id="D7ikYS8tj5oTR3qPuF1m-7" style="edgeStyle=orthogonalEdgeStyle;rounded=0;orthogonalLoop=1;jettySize=auto;html=1;exitX=1;exitY=0.5;exitDx=0;exitDy=0;entryX=0;entryY=0.5;entryDx=0;entryDy=0;entryPerimeter=0;fillColor=#dae8fc;strokeColor=#6c8ebf;" parent="1" source="ntHZI_EPPsZqQo3f0jup-122" target="D7ikYS8tj5oTR3qPuF1m-6" edge="1">
          <mxGeometry relative="1" as="geometry" />
        </mxCell>
        <mxCell id="D7ikYS8tj5oTR3qPuF1m-8" value="bind&amp;nbsp;timerWork(), call timerTaskFunc when some timerTask timeout" style="strokeWidth=2;html=1;shape=mxgraph.flowchart.document2;whiteSpace=wrap;size=0.25;fillColor=#dae8fc;strokeColor=#6c8ebf;" parent="1" vertex="1">
          <mxGeometry x="2120" y="2740" width="440" height="80" as="geometry" />
        </mxCell>
        <mxCell id="D7ikYS8tj5oTR3qPuF1m-9" style="edgeStyle=orthogonalEdgeStyle;rounded=0;orthogonalLoop=1;jettySize=auto;html=1;exitX=1;exitY=0.5;exitDx=0;exitDy=0;entryX=0;entryY=0.5;entryDx=0;entryDy=0;entryPerimeter=0;fillColor=#dae8fc;strokeColor=#6c8ebf;" parent="1" source="ntHZI_EPPsZqQo3f0jup-120" target="D7ikYS8tj5oTR3qPuF1m-8" edge="1">
          <mxGeometry relative="1" as="geometry" />
        </mxCell>
        <mxCell id="D7ikYS8tj5oTR3qPuF1m-11" value="register timerTask to TimewheelTimer, see Timer.h" style="strokeWidth=2;html=1;shape=mxgraph.flowchart.document2;whiteSpace=wrap;size=0.25;fillColor=#dae8fc;strokeColor=#6c8ebf;" parent="1" vertex="1">
          <mxGeometry x="2001" y="2540" width="319" height="80" as="geometry" />
        </mxCell>
        <mxCell id="D7ikYS8tj5oTR3qPuF1m-13" style="edgeStyle=orthogonalEdgeStyle;rounded=0;orthogonalLoop=1;jettySize=auto;html=1;exitX=1;exitY=0.5;exitDx=0;exitDy=0;entryX=0;entryY=0.5;entryDx=0;entryDy=0;entryPerimeter=0;fillColor=#dae8fc;strokeColor=#6c8ebf;" parent="1" source="D7ikYS8tj5oTR3qPuF1m-1" target="D7ikYS8tj5oTR3qPuF1m-11" edge="1">
          <mxGeometry relative="1" as="geometry" />
        </mxCell>
        <mxCell id="yLMswueMquxmP4PVcGWJ-1" value="Acceptor" style="rounded=0;whiteSpace=wrap;html=1;" parent="1" vertex="1">
          <mxGeometry x="2080" y="2920" width="80" height="160" as="geometry" />
        </mxCell>
        <mxCell id="yLMswueMquxmP4PVcGWJ-2" value="" style="shape=curlyBracket;whiteSpace=wrap;html=1;rounded=1;labelPosition=left;verticalLabelPosition=middle;align=right;verticalAlign=middle;rotation=90;" parent="1" vertex="1">
          <mxGeometry x="2127.67" y="2939.23" width="20" height="316.57" as="geometry" />
        </mxCell>
        <mxCell id="yLMswueMquxmP4PVcGWJ-3" value="eventLoopThread" style="rounded=0;whiteSpace=wrap;html=1;rotation=-90;" parent="1" vertex="1">
          <mxGeometry x="2100" y="2977.5" width="160" height="45" as="geometry" />
        </mxCell>
        <mxCell id="yLMswueMquxmP4PVcGWJ-4" value="" style="rounded=0;whiteSpace=wrap;html=1;" parent="1" vertex="1">
          <mxGeometry x="1980" y="3117.5" width="320" height="282.5" as="geometry" />
        </mxCell>
        <mxCell id="yLMswueMquxmP4PVcGWJ-5" value="Read/Write" style="rounded=0;whiteSpace=wrap;html=1;" parent="1" vertex="1">
          <mxGeometry x="2040" y="3140" width="80" height="140" as="geometry" />
        </mxCell>
        <mxCell id="yLMswueMquxmP4PVcGWJ-6" value="eventLoopThread" style="rounded=0;whiteSpace=wrap;html=1;rotation=-90;" parent="1" vertex="1">
          <mxGeometry x="2070" y="3187.5" width="140" height="45" as="geometry" />
        </mxCell>
        <mxCell id="yLMswueMquxmP4PVcGWJ-13" value="EventLoopThreadpool" style="rounded=0;whiteSpace=wrap;html=1;" parent="1" vertex="1">
          <mxGeometry x="1980" y="3360" width="320" height="40" as="geometry" />
        </mxCell>
        <mxCell id="yLMswueMquxmP4PVcGWJ-14" value="" style="endArrow=none;dashed=1;html=1;strokeWidth=2;rounded=0;" parent="1" edge="1">
          <mxGeometry width="50" height="50" relative="1" as="geometry">
            <mxPoint x="1760" y="3440" as="sourcePoint" />
            <mxPoint x="1760" y="2880" as="targetPoint" />
          </mxGeometry>
        </mxCell>
        <mxCell id="yLMswueMquxmP4PVcGWJ-15" value="" style="endArrow=none;dashed=1;html=1;strokeWidth=2;rounded=0;" parent="1" edge="1">
          <mxGeometry width="50" height="50" relative="1" as="geometry">
            <mxPoint x="2400" y="3440" as="sourcePoint" />
            <mxPoint x="2400" y="2880" as="targetPoint" />
          </mxGeometry>
        </mxCell>
        <mxCell id="yLMswueMquxmP4PVcGWJ-16" value="" style="endArrow=none;dashed=1;html=1;strokeWidth=2;rounded=0;" parent="1" edge="1">
          <mxGeometry width="50" height="50" relative="1" as="geometry">
            <mxPoint x="2400" y="2880" as="sourcePoint" />
            <mxPoint x="1760" y="2880" as="targetPoint" />
          </mxGeometry>
        </mxCell>
        <mxCell id="yLMswueMquxmP4PVcGWJ-17" value="" style="endArrow=none;dashed=1;html=1;strokeWidth=2;rounded=0;" parent="1" edge="1">
          <mxGeometry width="50" height="50" relative="1" as="geometry">
            <mxPoint x="2400" y="3440" as="sourcePoint" />
            <mxPoint x="1760" y="3440" as="targetPoint" />
          </mxGeometry>
        </mxCell>
        <mxCell id="Yq5ZRsfvl2vUEtwQN_n4-1" value="Client" style="rounded=0;whiteSpace=wrap;html=1;" vertex="1" parent="1">
          <mxGeometry x="1800" y="2960" width="40" height="400" as="geometry" />
        </mxCell>
        <mxCell id="Yq5ZRsfvl2vUEtwQN_n4-6" value="Read/Write" style="rounded=0;whiteSpace=wrap;html=1;" vertex="1" parent="1">
          <mxGeometry x="2050" y="3150" width="80" height="140" as="geometry" />
        </mxCell>
        <mxCell id="Yq5ZRsfvl2vUEtwQN_n4-7" value="eventLoopThread" style="rounded=0;whiteSpace=wrap;html=1;rotation=-90;" vertex="1" parent="1">
          <mxGeometry x="2081" y="3197.5" width="140" height="45" as="geometry" />
        </mxCell>
        <mxCell id="Yq5ZRsfvl2vUEtwQN_n4-9" value="Read/Write" style="rounded=0;whiteSpace=wrap;html=1;" vertex="1" parent="1">
          <mxGeometry x="2060" y="3160" width="80" height="140" as="geometry" />
        </mxCell>
        <mxCell id="Yq5ZRsfvl2vUEtwQN_n4-10" value="eventLoopThread" style="rounded=0;whiteSpace=wrap;html=1;rotation=-90;" vertex="1" parent="1">
          <mxGeometry x="2090.5" y="3207.5" width="140" height="45" as="geometry" />
        </mxCell>
        <mxCell id="Yq5ZRsfvl2vUEtwQN_n4-12" value="Read/Write" style="rounded=0;whiteSpace=wrap;html=1;" vertex="1" parent="1">
          <mxGeometry x="2067.67" y="3170" width="80" height="140" as="geometry" />
        </mxCell>
        <mxCell id="Yq5ZRsfvl2vUEtwQN_n4-13" value="eventLoopThread" style="rounded=0;whiteSpace=wrap;html=1;rotation=-90;" vertex="1" parent="1">
          <mxGeometry x="2100" y="3217.5" width="140" height="45" as="geometry" />
        </mxCell>
        <mxCell id="Yq5ZRsfvl2vUEtwQN_n4-15" value="register connfd" style="text;html=1;align=center;verticalAlign=middle;resizable=0;points=[];autosize=1;strokeColor=none;fillColor=none;rotation=-90;" vertex="1" parent="1">
          <mxGeometry x="2221" y="3022.5" width="100" height="30" as="geometry" />
        </mxCell>
        <mxCell id="Yq5ZRsfvl2vUEtwQN_n4-4" style="edgeStyle=orthogonalEdgeStyle;rounded=0;orthogonalLoop=1;jettySize=auto;html=1;exitX=0.5;exitY=1;exitDx=0;exitDy=0;entryX=0.5;entryY=1;entryDx=0;entryDy=0;" edge="1" parent="1" source="yLMswueMquxmP4PVcGWJ-3" target="Yq5ZRsfvl2vUEtwQN_n4-13">
          <mxGeometry relative="1" as="geometry">
            <mxPoint x="2290" y="2980" as="targetPoint" />
            <Array as="points">
              <mxPoint x="2260" y="3000" />
              <mxPoint x="2260" y="3240" />
            </Array>
          </mxGeometry>
        </mxCell>
        <mxCell id="Yq5ZRsfvl2vUEtwQN_n4-20" value="" style="endArrow=classic;html=1;rounded=0;shape=link;entryX=0;entryY=0.5;entryDx=0;entryDy=0;" edge="1" parent="1" target="yLMswueMquxmP4PVcGWJ-1">
          <mxGeometry relative="1" as="geometry">
            <mxPoint x="1840" y="3000" as="sourcePoint" />
            <mxPoint x="1940" y="3000" as="targetPoint" />
          </mxGeometry>
        </mxCell>
        <mxCell id="Yq5ZRsfvl2vUEtwQN_n4-21" value="" style="shape=message;html=1;outlineConnect=0;" vertex="1" parent="Yq5ZRsfvl2vUEtwQN_n4-20">
          <mxGeometry width="20" height="14" relative="1" as="geometry">
            <mxPoint x="-10" y="-7" as="offset" />
          </mxGeometry>
        </mxCell>
        <mxCell id="Yq5ZRsfvl2vUEtwQN_n4-22" value="" style="endArrow=classic;html=1;rounded=0;shape=link;entryX=0;entryY=0.5;entryDx=0;entryDy=0;exitX=0.999;exitY=0.101;exitDx=0;exitDy=0;exitPerimeter=0;" edge="1" parent="1" source="Yq5ZRsfvl2vUEtwQN_n4-1" target="yLMswueMquxmP4PVcGWJ-5">
          <mxGeometry relative="1" as="geometry">
            <mxPoint x="1840" y="3040" as="sourcePoint" />
            <mxPoint x="2080" y="3040" as="targetPoint" />
          </mxGeometry>
        </mxCell>
        <mxCell id="Yq5ZRsfvl2vUEtwQN_n4-23" value="" style="shape=message;html=1;outlineConnect=0;" vertex="1" parent="Yq5ZRsfvl2vUEtwQN_n4-22">
          <mxGeometry width="20" height="14" relative="1" as="geometry">
            <mxPoint x="-10" y="-7" as="offset" />
          </mxGeometry>
        </mxCell>
        <mxCell id="Yq5ZRsfvl2vUEtwQN_n4-24" value="" style="rounded=0;whiteSpace=wrap;html=1;fillColor=#d5e8d4;strokeColor=#82b366;" vertex="1" parent="1">
          <mxGeometry x="2282.5" y="2895" width="20" height="20" as="geometry" />
        </mxCell>
        <mxCell id="Yq5ZRsfvl2vUEtwQN_n4-25" value="" style="rounded=0;whiteSpace=wrap;html=1;fillColor=#dae8fc;strokeColor=#6c8ebf;" vertex="1" parent="1">
          <mxGeometry x="2282.5" y="2925" width="20" height="20" as="geometry" />
        </mxCell>
        <mxCell id="Yq5ZRsfvl2vUEtwQN_n4-26" value="listenfd" style="text;html=1;align=center;verticalAlign=middle;resizable=0;points=[];autosize=1;strokeColor=none;fillColor=none;" vertex="1" parent="1">
          <mxGeometry x="2297.5" y="2890" width="60" height="30" as="geometry" />
        </mxCell>
        <mxCell id="Yq5ZRsfvl2vUEtwQN_n4-27" value="connfd" style="text;html=1;align=center;verticalAlign=middle;resizable=0;points=[];autosize=1;strokeColor=none;fillColor=none;" vertex="1" parent="1">
          <mxGeometry x="2297.5" y="2920" width="60" height="30" as="geometry" />
        </mxCell>
        <mxCell id="Yq5ZRsfvl2vUEtwQN_n4-28" value="" style="rounded=0;whiteSpace=wrap;html=1;fillColor=#d5e8d4;strokeColor=#82b366;" vertex="1" parent="1">
          <mxGeometry x="2170" y="3060" width="20" height="20" as="geometry" />
        </mxCell>
        <mxCell id="Yq5ZRsfvl2vUEtwQN_n4-29" value="" style="rounded=0;whiteSpace=wrap;html=1;fillColor=#dae8fc;strokeColor=#6c8ebf;" vertex="1" parent="1">
          <mxGeometry x="2150" y="3300" width="10" height="10" as="geometry" />
        </mxCell>
        <mxCell id="Yq5ZRsfvl2vUEtwQN_n4-30" value="" style="rounded=0;whiteSpace=wrap;html=1;fillColor=#dae8fc;strokeColor=#6c8ebf;" vertex="1" parent="1">
          <mxGeometry x="2160" y="3300" width="10" height="10" as="geometry" />
        </mxCell>
        <mxCell id="Yq5ZRsfvl2vUEtwQN_n4-31" value="" style="rounded=0;whiteSpace=wrap;html=1;fillColor=#dae8fc;strokeColor=#6c8ebf;" vertex="1" parent="1">
          <mxGeometry x="2170" y="3300" width="10" height="10" as="geometry" />
        </mxCell>
        <mxCell id="Yq5ZRsfvl2vUEtwQN_n4-32" value="" style="rounded=0;whiteSpace=wrap;html=1;fillColor=#dae8fc;strokeColor=#6c8ebf;" vertex="1" parent="1">
          <mxGeometry x="2180.5" y="3300" width="10" height="10" as="geometry" />
        </mxCell>
        <mxCell id="Yq5ZRsfvl2vUEtwQN_n4-33" value="" style="rounded=0;whiteSpace=wrap;html=1;fillColor=#dae8fc;strokeColor=#6c8ebf;" vertex="1" parent="1">
          <mxGeometry x="2150" y="3290" width="10" height="10" as="geometry" />
        </mxCell>
        <mxCell id="Yq5ZRsfvl2vUEtwQN_n4-34" value="" style="rounded=0;whiteSpace=wrap;html=1;fillColor=#dae8fc;strokeColor=#6c8ebf;" vertex="1" parent="1">
          <mxGeometry x="2160" y="3290" width="10" height="10" as="geometry" />
        </mxCell>
        <mxCell id="Yq5ZRsfvl2vUEtwQN_n4-35" value="" style="rounded=0;whiteSpace=wrap;html=1;fillColor=#dae8fc;strokeColor=#6c8ebf;" vertex="1" parent="1">
          <mxGeometry x="2170.5" y="3290" width="10" height="10" as="geometry" />
        </mxCell>
        <mxCell id="Yq5ZRsfvl2vUEtwQN_n4-36" value="" style="rounded=0;whiteSpace=wrap;html=1;fillColor=#dae8fc;strokeColor=#6c8ebf;" vertex="1" parent="1">
          <mxGeometry x="2180.5" y="3290" width="10" height="10" as="geometry" />
        </mxCell>
      </root>
    </mxGraphModel>
  </diagram>
</mxfile>
